<svg width="32" height="32" viewBox="0 0 32 32" fill="none" xmlns="http://www.w3.org/2000/svg">
<path d="M15 7C15 6.5 15.4375 6 16 6C16.5 6 17 6.5 17 7V15.5L22.5 19.1875C23 19.5 23.125 20.125 22.8125 20.5625C22.5 21.0625 21.875 21.1875 21.4375 20.875L15.4375 16.875C15.125 16.6875 14.9375 16.375 14.9375 16L15 7ZM16 0C24.8125 0 32 7.1875 32 16C32 24.875 24.8125 32 16 32C7.125 32 0 24.875 0 16C0 7.1875 7.125 0 16 0ZM2 16C2 23.75 8.25 30 16 30C23.6875 30 30 23.75 30 16C30 8.3125 23.6875 2 16 2C8.25 2 2 8.3125 2 16Z" fill="#009FC2"/>
</svg>
