<svg width="30" height="30" viewBox="0 0 30 30" fill="none" xmlns="http://www.w3.org/2000/svg">
<g clip-path="url(#clip0_551_8051)">
<path d="M25.4481 20.245L21.8462 13.7416C21.7461 13.5915 21.5961 13.4915 21.396 13.4915H8.53926C8.33915 13.4915 8.18908 13.5915 8.08902 13.7416L4.48715 20.245C4.3871 20.3951 4.3871 20.5952 4.48715 20.7452C4.5872 20.8953 4.73728 20.9954 4.93738 20.9954H24.9978C25.298 20.9954 25.4981 20.7953 25.4981 20.4951C25.4981 20.3951 25.4981 20.345 25.4481 20.245ZM5.7378 19.9948L8.83942 14.492H21.0958L24.1474 19.9948H5.7378Z" fill="#009FC2"/>
<path d="M29.8999 29.2496L25.4476 22.246C25.3476 22.0959 25.1975 21.9958 25.0474 21.9958H4.93695C4.78687 21.9958 4.58676 22.0959 4.53674 22.246L0.084419 29.2496C-0.0656592 29.4998 -0.0156331 29.7999 0.234497 29.95C0.284523 29.95 0.384575 30 0.484627 30H29.4997C29.7999 30 30 29.7999 30 29.4998C30 29.3997 29.95 29.2997 29.8999 29.2496ZM1.3851 28.9995L5.18708 22.9964H24.7473L28.5492 28.9995H1.3851Z" fill="#009FC2"/>
<path d="M21.8956 11.7405L15.4923 0.234497C15.3422 -0.0156331 14.992 -0.0656592 14.7919 0.084419C14.7419 0.134445 14.6918 0.184471 14.6418 0.234497L8.23848 11.7405C8.0884 11.9906 8.18846 12.2908 8.43859 12.4409C8.38856 12.4909 8.48861 12.4909 8.58867 12.4909H21.4454C21.7455 12.4909 21.9456 12.2908 21.9456 11.9906C21.9456 11.8906 21.9456 11.8405 21.8956 11.7405ZM9.43911 11.4904L14.992 1.53517L20.5449 11.4904H9.43911Z" fill="#009FC2"/>
</g>
<defs>
<clipPath id="clip0_551_8051">
<rect width="30" height="30" fill="white"/>
</clipPath>
</defs>
</svg>
