<svg width="45" height="45" viewBox="0 0 45 45" fill="none" xmlns="http://www.w3.org/2000/svg">
<path d="M7.12137 35.8659C7.29249 35.676 7.54421 35.4622 7.87714 35.2243C8.20946 34.9868 8.57095 34.7494 8.96075 34.5114C9.35019 34.2739 9.74491 34.0408 10.1442 33.8127C10.5436 33.5846 10.8856 33.385 11.1708 33.2139C11.5888 32.9671 11.9978 32.6962 12.397 32.4013C12.7963 32.1067 13.1571 31.7645 13.4806 31.3747C13.8037 30.9853 14.0653 30.5434 14.2648 30.0487C14.4645 29.5545 14.5641 28.9935 14.5641 28.3663C14.5641 26.8455 14.0175 25.6385 12.9245 24.7446C11.8311 23.8513 10.2583 23.4043 8.20515 23.4043C7.36834 23.4043 6.56546 23.4806 5.79545 23.6325C5.02553 23.7849 4.31704 23.9889 3.67096 24.2456C3.02435 24.5023 2.44471 24.7923 1.93143 25.1154C1.41815 25.4388 1.00919 25.7712 0.705265 26.1134L3.61392 29.4782C4.16508 28.8509 4.7354 28.3425 5.32489 27.9526C5.91402 27.5633 6.60809 27.3681 7.40658 27.3681C8.1097 27.3681 8.65155 27.5298 9.03203 27.8529C9.41207 28.1764 9.60235 28.6041 9.60235 29.1361C9.60235 29.4025 9.52615 29.635 9.37427 29.8347C9.22187 30.0343 8.97015 30.258 8.6185 30.5048C8.2665 30.7521 7.79145 31.0372 7.19265 31.3603C6.59385 31.6839 5.84748 32.0924 4.95407 32.5865C4.11736 33.0619 3.42364 33.5467 2.87239 34.0407C2.32078 34.5354 1.88362 35.0722 1.5607 35.652C1.23727 36.2321 1.00919 36.8738 0.8763 37.5769C0.743058 38.2805 0.676701 39.079 0.676701 39.9723H14.8779V35.8659H7.12137Z" fill="#009FC2"/>
<path d="M29.0216 35.5807V23.6895H25.9133L16.6171 35.6093V39.6871H24.459V43.5939H29.0216V39.6871H31.531V35.5807H29.0216ZM25.0008 35.5808H21.1226L25.0008 30.5334V35.5808Z" fill="#009FC2"/>
<path d="M3.32985 41.0144V42.5411H1.75889V41.0144H0.848434V44.9558H1.75889V43.3403H3.32985V44.9558H4.24031V41.0144H3.32985Z" fill="#009FC2"/>
<path d="M9.38054 42.2633C9.28817 42.0229 9.15686 41.8082 8.98661 41.6195C8.81628 41.4307 8.61097 41.2792 8.37041 41.1643C8.12977 41.0496 7.86337 40.9922 7.57096 40.9922C7.28602 40.9922 7.02322 41.0469 6.78267 41.1559C6.54202 41.2652 6.3339 41.4113 6.15803 41.5944C5.98225 41.7776 5.84523 41.9896 5.74723 42.2301C5.64905 42.4708 5.6001 42.7206 5.6001 42.9796C5.6001 43.2349 5.64729 43.4829 5.74169 43.7234C5.83608 43.964 5.96827 44.1778 6.13852 44.3646C6.30876 44.5514 6.51416 44.7023 6.75472 44.8169C6.99527 44.9316 7.26167 44.989 7.55417 44.989C7.83911 44.989 8.10182 44.9336 8.34246 44.8224C8.58302 44.7115 8.79026 44.5642 8.9642 44.3812C9.13822 44.198 9.2741 43.986 9.37219 43.7454C9.47027 43.5049 9.51932 43.2551 9.51932 42.996C9.51932 42.7482 9.473 42.5039 9.38054 42.2633ZM8.52861 43.4153C8.48599 43.5579 8.42218 43.6855 8.33701 43.7984C8.25193 43.9113 8.14453 44.0029 8.01516 44.0733C7.88552 44.1435 7.73382 44.1788 7.55988 44.1788C7.39333 44.1788 7.24532 44.1454 7.11577 44.0789C6.98613 44.0123 6.87794 43.9233 6.79102 43.8124C6.70409 43.7015 6.63844 43.5747 6.59397 43.4322C6.54949 43.2897 6.52734 43.1427 6.52734 42.9909C6.52734 42.8429 6.54861 42.6976 6.59124 42.5551C6.63387 42.4127 6.69847 42.2858 6.78548 42.1748C6.87249 42.0638 6.97972 41.9741 7.10742 41.9056C7.23513 41.8372 7.38595 41.8029 7.5598 41.8029C7.72635 41.8029 7.87339 41.8353 8.00109 41.9001C8.12871 41.9649 8.23699 42.052 8.32576 42.161C8.41453 42.2702 8.48124 42.3961 8.52563 42.5384C8.57001 42.6809 8.59225 42.8281 8.59225 42.9797C8.59251 43.1277 8.57115 43.273 8.52861 43.4153Z" fill="#009FC2"/>
<path d="M13.4113 41.0145V43.0295H13.411C13.411 43.1739 13.3972 43.3154 13.3694 43.4542C13.3416 43.5929 13.2944 43.716 13.2279 43.8233C13.1613 43.9306 13.0742 44.0167 12.9669 44.0814C12.8597 44.1463 12.7282 44.1786 12.5728 44.1786C12.4173 44.1786 12.2869 44.1472 12.1814 44.0842C12.0759 44.0214 11.9898 43.9362 11.9233 43.8288C11.8567 43.7217 11.8085 43.5994 11.7789 43.4625C11.7492 43.3256 11.7345 43.1813 11.7345 43.0295V41.0144H10.8242V43.0295C10.8242 43.2886 10.8565 43.5365 10.9213 43.7733C10.986 44.0102 11.0879 44.2183 11.2267 44.3979C11.3655 44.5776 11.5459 44.7208 11.7679 44.8281C11.99 44.9354 12.2583 44.9891 12.5729 44.9891C12.8763 44.9891 13.1381 44.9383 13.3585 44.8364C13.5786 44.7346 13.76 44.5949 13.9024 44.4174C14.0449 44.2396 14.1504 44.0325 14.2189 43.7956C14.2874 43.5588 14.3217 43.3034 14.3217 43.0296V41.0145H13.4113Z" fill="#009FC2"/>
<path d="M18.2794 43.4901C18.3793 43.4346 18.469 43.3671 18.5487 43.2875C18.6283 43.2078 18.6958 43.1181 18.7513 43.0182C18.8068 42.9183 18.8494 42.8119 18.879 42.6989C18.9085 42.5861 18.9234 42.4686 18.9234 42.3465C18.9234 42.1835 18.891 42.0226 18.8262 41.8634C18.7614 41.7044 18.6717 41.5619 18.557 41.4361C18.4422 41.3104 18.3062 41.2085 18.149 41.1307C17.9917 41.0531 17.8205 41.0142 17.6355 41.0142H15.8591V44.9556H16.7695V43.6844H17.3634L18.1184 44.9556H19.1453L18.2794 43.4901ZM17.8798 42.7379C17.8021 42.8397 17.7094 42.8905 17.6022 42.8905H16.7695V41.8136H17.5745C17.678 41.8136 17.7744 41.8618 17.8632 41.958C17.9519 42.0543 17.9964 42.1838 17.9964 42.3467C17.9963 42.5057 17.9575 42.6362 17.8798 42.7379Z" fill="#009FC2"/>
<path d="M23.2064 43.329C23.1489 43.1998 23.0676 43.0896 22.9622 42.9989C22.8566 42.9082 22.728 42.8323 22.5763 42.7713C22.4244 42.7102 22.2544 42.6539 22.0656 42.6019C21.9286 42.565 21.8083 42.5317 21.7048 42.5021C21.6012 42.4725 21.5151 42.4401 21.4467 42.4049C21.3781 42.3697 21.3263 42.3299 21.2912 42.2855C21.2558 42.2411 21.2384 42.1857 21.2384 42.119C21.2384 41.9006 21.4012 41.7914 21.7269 41.7914C21.8452 41.7914 21.9637 41.8081 22.0822 41.8414C22.2005 41.8747 22.3097 41.9137 22.4098 41.9579C22.5096 42.0023 22.5928 42.045 22.6595 42.0857C22.7261 42.1264 22.765 42.1542 22.7761 42.169L23.1758 41.414C23.087 41.3622 22.9898 41.3105 22.8844 41.2585C22.7789 41.2067 22.6651 41.1604 22.5429 41.1197C22.4208 41.079 22.2931 41.0458 22.1599 41.0199C22.0266 40.9941 21.8916 40.981 21.7547 40.981C21.5585 40.981 21.3726 41.0088 21.1969 41.0643C21.0211 41.1197 20.8665 41.2022 20.7334 41.3113C20.6002 41.4205 20.4947 41.5547 20.4169 41.7138C20.3392 41.873 20.3004 42.0562 20.3004 42.2635C20.3004 42.4116 20.3216 42.541 20.3642 42.652C20.4068 42.763 20.4714 42.8611 20.5584 42.9463C20.6454 43.0314 20.7555 43.1064 20.8888 43.1711C21.0221 43.236 21.1794 43.296 21.3607 43.3516C21.4976 43.3923 21.6244 43.4292 21.7409 43.4626C21.8575 43.4959 21.9584 43.532 22.0434 43.5708C22.1284 43.6097 22.1952 43.6532 22.2433 43.7013C22.2913 43.7493 22.3155 43.8104 22.3155 43.8844C22.3155 44.0806 22.1545 44.1787 21.8326 44.1787C21.6807 44.1787 21.5309 44.1583 21.3828 44.1176C21.2348 44.0769 21.1005 44.0306 20.9803 43.9788C20.86 43.9271 20.7591 43.8753 20.6778 43.8233C20.5964 43.7716 20.5482 43.7363 20.5334 43.7178L20.1337 44.5116C20.2484 44.5892 20.3732 44.6578 20.5083 44.7169C20.6434 44.7762 20.7833 44.8271 20.9275 44.8696C21.0718 44.9121 21.2197 44.9446 21.3716 44.9667C21.5234 44.9889 21.6713 45 21.8157 45C22.0045 45 22.1877 44.9787 22.3654 44.9361C22.543 44.8936 22.7002 44.8251 22.8373 44.7308C22.9742 44.6364 23.0842 44.5125 23.1676 44.3589C23.2509 44.2053 23.2924 44.0174 23.2924 43.7954C23.2924 43.6141 23.2638 43.4587 23.2064 43.329Z" fill="#009FC2"/>
<path d="M25.0799 21.256C24.8321 20.2733 24.0571 19.4982 23.0744 19.2505V7.12476H21.7234V19.2506C20.5244 19.5528 19.6342 20.6401 19.6342 21.9315C19.6342 23.4561 20.8745 24.6962 22.3989 24.6962C23.6904 24.6962 24.7775 23.8059 25.0798 22.607H33.1177V21.256H25.0799ZM22.3989 23.3452C21.6194 23.3452 20.9852 22.711 20.9852 21.9315C20.9852 21.152 21.6194 20.5178 22.3989 20.5178C23.1784 20.5178 23.8127 21.152 23.8127 21.9315C23.8127 22.711 23.1784 23.3452 22.3989 23.3452Z" fill="#009FC2"/>
<path d="M41.8712 32.0318C43.4801 28.9363 44.3306 25.4436 44.3306 21.9315C44.3306 16.0734 42.0493 10.5659 37.9071 6.42343C33.7646 2.2813 28.2571 0 22.399 0C16.5409 0 11.0332 2.2813 6.89086 6.42351C2.74864 10.5659 0.467346 16.0735 0.467346 21.9316V22.6071H4.59471V21.2562H1.82922C1.93697 17.9303 2.83847 14.802 4.34879 12.0534L6.72598 13.4577L7.41311 12.2945L5.03706 10.8908C6.66586 8.33839 8.84213 6.16819 11.3985 4.54502L12.7963 6.92361L13.9611 6.23912L12.5624 3.85894C15.3009 2.36251 18.4145 1.47042 21.7235 1.36319V4.12736H23.0745V1.36319C26.4001 1.47103 29.5288 2.37112 32.2773 3.88135L30.8729 6.25863L32.0359 6.94576L33.4393 4.57016C35.9917 6.19895 38.1622 8.37487 39.7854 10.9312L37.4067 12.3289L38.0912 13.4936L40.4723 12.0946C41.9688 14.8331 42.86 17.9472 42.9673 21.2562H40.2032V22.6071H42.9675C42.8595 25.8564 41.9767 29.0062 40.4445 31.8071L38.0719 30.4055L37.3847 31.5687L39.7566 32.9698C38.6597 34.6974 37.3039 36.267 35.7229 37.6139L35.9055 35.9672L34.5628 35.8182L34.1251 39.764L38.0709 40.2017L38.2199 38.859L36.5605 38.6749C38.738 36.8285 40.5582 34.5583 41.8712 32.0318Z" fill="#009FC2"/>
</svg>
