<svg width="76" height="70" viewBox="0 0 76 70" fill="none" xmlns="http://www.w3.org/2000/svg">
<g clip-path="url(#clip0_561_8264)">
<path fill-rule="evenodd" clip-rule="evenodd" d="M51.2659 13.5135H40.2609C39.6626 13.5135 39.1777 13.0236 39.1777 12.419V1.29817C39.1777 0.69355 39.6626 0.203613 40.2609 0.203613C40.859 0.203613 41.344 0.69355 41.344 1.29817V11.3244H51.2659C51.8642 11.3244 52.349 11.8144 52.349 12.419C52.3488 13.0236 51.864 13.5135 51.2659 13.5135Z" fill="#009FC2"/>
<path fill-rule="evenodd" clip-rule="evenodd" d="M48.5089 69.979H4.20362C1.93639 69.979 0.0917969 68.1152 0.0917969 65.8243V4.08353C0.0917969 1.79264 1.93639 -0.071167 4.20362 -0.071167H39.0059C39.5968 -0.071167 40.1695 0.0545434 40.7085 0.30201C41.1586 0.509099 41.5637 0.792989 41.9126 1.14619L51.4155 10.7487C51.766 11.1015 52.0476 11.5123 52.2513 11.9681C52.2539 11.9742 52.2566 11.9802 52.2591 11.986C52.4982 12.5236 52.6193 13.0956 52.6193 13.6866V22.2339C52.6193 22.8385 52.1345 23.3285 51.5362 23.3285C50.9381 23.3285 50.453 22.8385 50.453 22.2339V13.6866C50.453 13.4036 50.3943 13.1299 50.2786 12.8733C50.2759 12.8672 50.2732 12.8614 50.2705 12.8552C50.1758 12.6477 50.046 12.4601 49.8848 12.2978L40.3798 2.69322C40.2146 2.52588 40.0235 2.39205 39.811 2.29423C39.556 2.17705 39.2849 2.11753 39.0054 2.11753H4.20342C3.13056 2.11753 2.2579 2.99917 2.2579 4.08311V65.8239C2.2579 66.9076 3.13077 67.7894 4.20342 67.7894L48.5089 67.7896C49.581 67.7896 50.4532 66.908 50.4532 65.8241V58.5127C50.4532 57.908 50.9381 57.4181 51.5364 57.4181C52.1347 57.4181 52.6195 57.908 52.6195 58.5127V65.8241C52.6195 68.1152 50.7756 69.979 48.5089 69.979Z" fill="#009FC2"/>
<path fill-rule="evenodd" clip-rule="evenodd" d="M34.7125 12.2321H9.84097C9.24265 12.2321 8.75781 11.7421 8.75781 11.1375C8.75781 10.5329 9.24265 10.043 9.84097 10.043H34.7125C35.3109 10.043 35.7957 10.5329 35.7957 11.1375C35.7957 11.7421 35.3109 12.2321 34.7125 12.2321Z" fill="#009FC2"/>
<path fill-rule="evenodd" clip-rule="evenodd" d="M28.9889 40.8114H9.84292C9.2446 40.8114 8.75977 40.3215 8.75977 39.7169C8.75977 39.1125 9.2446 38.6223 9.84292 38.6223H28.9889C29.5871 38.6223 30.0721 39.1125 30.0721 39.7169C30.0719 40.3213 29.5871 40.8114 28.9889 40.8114Z" fill="#009FC2"/>
<path fill-rule="evenodd" clip-rule="evenodd" d="M39.2436 21.7586H9.84292C9.2446 21.7586 8.75977 21.2686 8.75977 20.664C8.75977 20.0596 9.2446 19.5695 9.84292 19.5695H39.2436C39.8417 19.5695 40.3267 20.0594 40.3267 20.664C40.3267 21.2686 39.8417 21.7586 39.2436 21.7586Z" fill="#009FC2"/>
<path fill-rule="evenodd" clip-rule="evenodd" d="M28.9872 31.2849H9.84097C9.24265 31.2849 8.75781 30.7948 8.75781 30.1904C8.75781 29.5858 9.24265 29.0958 9.84097 29.0958H28.9872C29.5853 29.0958 30.0704 29.5858 30.0704 30.1904C30.0701 30.795 29.5853 31.2849 28.9872 31.2849Z" fill="#009FC2"/>
<path fill-rule="evenodd" clip-rule="evenodd" d="M38.3409 59.8644H9.84292C9.2446 59.8644 8.75977 59.3745 8.75977 58.7698C8.75977 58.1652 9.2446 57.6753 9.84292 57.6753H38.3409C38.939 57.6753 39.424 58.1652 39.424 58.7698C39.424 59.3745 38.939 59.8644 38.3409 59.8644Z" fill="#009FC2"/>
<path fill-rule="evenodd" clip-rule="evenodd" d="M28.9889 50.3379H9.84292C9.2446 50.3379 8.75977 49.848 8.75977 49.2434C8.75977 48.639 9.2446 48.1488 9.84292 48.1488H28.9889C29.5871 48.1488 30.0721 48.6387 30.0721 49.2434C30.0719 49.848 29.5871 50.3379 28.9889 50.3379Z" fill="#009FC2"/>
<path fill-rule="evenodd" clip-rule="evenodd" d="M51.5435 59.6075C48.9746 59.6075 46.4818 59.0988 44.1345 58.0956C41.8677 57.1268 39.8323 55.7402 38.0847 53.974C36.337 52.2078 34.9648 50.1511 34.0061 47.8606C33.0131 45.4888 32.5098 42.9698 32.5098 40.3735C32.5098 37.7775 33.0131 35.2585 34.0061 32.8865C34.9648 30.596 36.337 28.5393 38.0847 26.7731C39.8323 25.0071 41.8679 23.6203 44.1345 22.6515C46.4816 21.6483 48.9744 21.1394 51.5435 21.1394C54.1125 21.1394 56.6053 21.6481 58.9526 22.6515C61.2192 23.6203 63.2548 25.0069 65.0023 26.7731C66.7501 28.5391 68.1223 30.596 69.081 32.8865C70.0737 35.2585 70.5771 37.7775 70.5771 40.3735C70.5771 42.9695 70.0737 45.4885 69.081 47.8606C68.1223 50.1511 66.7501 52.2078 65.0023 53.974C63.2548 55.7402 61.2192 57.1268 58.9526 58.0956C56.6053 59.0988 54.1125 59.6075 51.5435 59.6075ZM51.5435 23.3287C42.2429 23.3287 34.6763 30.975 34.6763 40.3735C34.6763 49.7721 42.2429 57.4184 51.5435 57.4184C60.8442 57.4184 68.4108 49.7721 68.4108 40.3735C68.4108 30.975 60.8442 23.3287 51.5435 23.3287Z" fill="#009FC2"/>
<path fill-rule="evenodd" clip-rule="evenodd" d="M51.543 53.5122C48.0701 53.5122 44.8051 52.1456 42.3493 49.6638C39.8936 47.1823 38.541 43.8828 38.541 40.3733C38.541 36.8638 39.8936 33.5644 42.3493 31.0828C44.8049 28.6013 48.0701 27.2345 51.543 27.2345C55.0159 27.2345 58.281 28.6011 60.7367 31.0828C63.1924 33.5644 64.545 36.8638 64.545 40.3733C64.545 43.8828 63.1926 47.1821 60.7367 49.6638C58.2808 52.1456 55.0159 53.5122 51.543 53.5122ZM51.543 29.424C48.6486 29.424 45.9276 30.5629 43.8812 32.6311C41.8348 34.6993 40.7075 37.4489 40.7075 40.3735C40.7075 43.2982 41.8348 46.048 43.8812 48.116C45.9278 50.1842 48.6488 51.3231 51.543 51.3231C54.4372 51.3231 57.1583 50.1842 59.2048 48.116C61.2514 46.048 62.3784 43.2982 62.3784 40.3735C62.3784 37.4489 61.2514 34.6991 59.2048 32.6311C57.1583 30.5631 54.4374 29.424 51.543 29.424Z" fill="#009FC2"/>
<path fill-rule="evenodd" clip-rule="evenodd" d="M51.5444 47.4171C50.613 47.4171 49.7148 47.2387 48.8745 46.887C48.0342 46.5353 47.2742 46.0197 46.6157 45.3543C45.9573 44.6887 45.4469 43.9209 45.0988 43.0718C44.7507 42.2224 44.5742 41.3147 44.5742 40.3738C44.5742 39.4328 44.7507 38.5252 45.0988 37.676C45.4469 36.8268 45.9573 36.0588 46.6155 35.3934C47.2742 34.728 48.034 34.2121 48.8743 33.8606C49.7146 33.5088 50.6128 33.3304 51.544 33.3304C52.4751 33.3304 53.3733 33.5088 54.2139 33.8606C55.0542 34.2123 55.814 34.728 56.4726 35.3932C57.1313 36.0588 57.6417 36.8268 57.9896 37.6758C58.3376 38.525 58.5141 39.4326 58.5141 40.3736C58.5141 41.3145 58.3376 42.2224 57.9896 43.0716C57.6415 43.9207 57.1311 44.6887 56.4729 45.3541C55.8144 46.0197 55.0544 46.5353 54.2141 46.887C53.3737 47.2387 52.4755 47.4171 51.5444 47.4171ZM51.5444 35.5193C50.8991 35.5193 50.2798 35.6417 49.7035 35.8827C49.1274 36.124 48.6039 36.4801 48.1475 36.9411C47.6912 37.4021 47.3388 37.9312 47.1001 38.5135C46.8614 39.0957 46.7405 39.7215 46.7405 40.3738C46.7405 41.0258 46.8616 41.6517 47.1001 42.234C47.3386 42.8162 47.691 43.3453 48.1475 43.8065C48.6037 44.2675 49.1272 44.6236 49.7035 44.8648C50.2796 45.106 50.8989 45.2282 51.5442 45.2282C52.1895 45.2282 52.8088 45.1058 53.3851 44.8648C53.9611 44.6236 54.4847 44.2675 54.9411 43.8063C55.3973 43.3452 55.7497 42.8162 55.9884 42.234C56.2271 41.6517 56.348 41.0258 56.348 40.3738C56.348 39.7217 56.2269 39.0959 55.9884 38.5135C55.7499 37.9312 55.3973 37.4023 54.9411 36.9411C54.4849 36.4801 53.9614 36.1238 53.3853 35.8827C52.809 35.6415 52.1897 35.5193 51.5444 35.5193Z" fill="#009FC2"/>
<path fill-rule="evenodd" clip-rule="evenodd" d="M51.544 41.4681C51.2668 41.4681 50.9896 41.3611 50.7781 41.1475C50.3552 40.72 50.3552 40.0272 50.7781 39.5997L67.688 22.5118C68.111 22.0843 68.7967 22.0843 69.2197 22.5118C69.6425 22.9393 69.6425 23.6324 69.2197 24.0596L52.3098 41.1475C52.0983 41.3613 51.8213 41.4681 51.544 41.4681Z" fill="#009FC2"/>
<path fill-rule="evenodd" clip-rule="evenodd" d="M68.4543 24.3802C68.1678 24.3802 67.8922 24.2655 67.6883 24.0597C67.4696 23.8387 67.3547 23.5335 67.373 23.2213L67.5629 19.9652C67.5783 19.6977 67.6908 19.445 67.8782 19.2556L71.1361 15.9634C71.4541 15.6421 71.9357 15.5528 72.3457 15.7389C72.756 15.9251 73.0098 16.3481 72.9832 16.8018L72.865 18.8286L74.8706 18.7091C75.3184 18.682 75.7381 18.9389 75.9225 19.3532C76.1068 19.7678 76.0183 20.2542 75.7002 20.5756L72.4423 23.8678C72.2547 24.0572 72.0049 24.1706 71.7402 24.1864L68.5179 24.3783C68.4967 24.3796 68.4755 24.3802 68.4543 24.3802ZM71.6766 23.094H71.6772H71.6766ZM69.7012 20.5092L69.6073 22.1205L71.2018 22.0256L72.154 21.0635L71.7758 21.0859C71.4667 21.104 71.165 20.9883 70.9462 20.7673C70.7275 20.5462 70.6128 20.2409 70.6309 19.9289L70.6531 19.547L69.7012 20.5092Z" fill="#009FC2"/>
</g>
<defs>
<clipPath id="clip0_561_8264">
<rect width="76" height="70" fill="white"/>
</clipPath>
</defs>
</svg>
