<svg width="30" height="30" viewBox="0 0 30 30" fill="none" xmlns="http://www.w3.org/2000/svg">
<mask id="path-1-outside-1_561_8680" maskUnits="userSpaceOnUse" x="0.0078125" y="-0.53125" width="29" height="31" fill="black">
<rect fill="white" x="0.0078125" y="-0.53125" width="29" height="31"/>
<path d="M28.2814 17.2973C28.4277 16.9719 28.4939 16.6113 28.473 16.2545L28.4352 15.6111C28.3992 15 28.0738 14.4326 27.5645 14.0932C27.0686 13.7626 26.4493 13.6438 25.8656 13.7681C25.8158 13.7787 25.7605 13.7909 25.7 13.8046C23.6163 14.276 21.6228 15.0905 19.7754 16.2251L19.0822 16.6508L18.917 13.282C18.8822 12.6725 18.6959 12.0745 18.3784 11.5528L17.4799 10.0767C17.302 9.78469 17.1717 9.4677 17.0925 9.13488C16.7911 7.86902 15.8338 6.83695 14.5941 6.44133L12.2902 5.70609C11.9203 5.58809 11.5234 5.54965 11.1348 5.59242C9.93536 4.42805 8.58747 3.15926 8.34395 2.97656C8.31055 2.95148 4.96122 0.46875 4.33614 0.46875H3.27477C2.86098 0.46875 2.49102 0.746016 2.37489 1.14316C2.1445 1.93125 1.75801 3.39422 1.75801 4.33594C1.75801 5.50629 1.65958 8.16914 1.64329 8.60285L1.24215 9.27141C1.03836 9.61113 0.96395 10.0131 1.03286 10.4032L1.2077 11.3937C1.2718 11.7568 1.45895 12.0918 1.73458 12.3369L1.94458 12.5236C2.10254 12.664 2.30129 12.7393 2.51036 12.7393C2.53204 12.7393 2.55395 12.7385 2.57575 12.7369C2.61665 12.7338 2.65637 12.727 2.69563 12.7185V25.5945C2.69563 26.3661 2.87809 27.1389 3.22309 27.8291C3.53118 28.4453 4.15063 28.828 4.83946 28.828H4.96954C5.50766 28.828 6.03922 28.7418 6.56024 28.5676C6.75243 28.4931 11.2767 26.7356 12.2669 26.1293L16.5079 23.5328L19.2137 22.5708C20.6043 22.0763 21.8563 21.2306 22.8343 20.1252L23.3948 19.4916C22.7888 21.5929 22.4559 24.8194 22.4132 25.2502L21.1291 28.0324C21.0422 28.2207 21.0084 28.4293 21.0313 28.6355C21.0954 29.213 21.5819 29.6484 22.1629 29.6484H27.8069C28.1256 29.6484 28.3849 29.3892 28.3849 29.0705C28.3849 28.8295 28.2335 28.6118 28.008 28.5287C26.4192 27.9423 24.6124 26.9416 24.7494 26.0511C24.9043 25.044 26.6755 20.8689 28.2814 17.2973ZM14.1143 15.8208C14.1078 15.7559 14.0998 15.6911 14.0886 15.6262L14.0166 15.2128C13.9849 15.0301 13.9439 14.8504 13.8959 14.6732C14.4443 14.5279 15.7943 14.1684 16.2106 14.0429C16.6269 13.9172 17.8559 13.2838 18.4138 12.9913C18.4302 13.0959 18.4429 13.2012 18.4489 13.3069L18.5611 15.5941L17.7761 15.3444C16.8079 15.0368 15.7647 15.0966 14.8429 15.5113L14.1143 15.8208ZM3.1679 12.432C3.32247 12.2466 3.39149 12.0033 3.35727 11.7645L3.2736 11.1784L3.29856 11.207C3.41176 11.3364 3.58098 11.4007 3.75149 11.3788C3.77258 11.3761 3.79333 11.3721 3.8136 11.367L4.01176 12.1267C4.16247 12.7043 4.42555 13.2352 4.79387 13.7047L5.44192 14.5309C5.44626 14.5364 5.45083 14.5418 5.45563 14.547C5.63047 14.7326 5.62614 15.0192 5.44579 15.1996L4.83946 15.8059C4.73528 15.9101 4.68583 16.0593 4.70879 16.215L5.70817 21.4622C5.71567 21.5142 5.722 21.5665 5.72715 21.6187C5.74145 21.7658 5.74215 21.9299 5.72961 22.135L5.63012 23.7509L3.16426 24.8705V12.4359C3.16543 12.4345 3.16672 12.4334 3.1679 12.432ZM6.19379 21.5735C6.18805 21.5138 6.18079 21.4542 6.17047 21.3846L5.17098 16.1373L5.77731 15.531C6.13532 15.173 6.14657 14.6054 5.80485 14.2338L5.16278 13.4155C4.8343 12.9969 4.59969 12.5235 4.46528 12.0084L4.19118 10.9575C4.20418 10.8841 4.20313 10.8087 4.18368 10.7355L4.13961 10.5702C4.43938 10.804 4.76364 10.9863 5.09645 11.1075C4.93602 11.947 5.36352 12.7975 6.14012 13.1115C6.35704 13.1992 6.58415 13.243 6.81126 13.243C7.04809 13.243 7.28493 13.1953 7.50969 13.0999C7.94973 12.9132 8.29075 12.5665 8.46981 12.1234C8.69598 11.5643 8.67618 10.973 8.42879 10.5212C8.64501 10.3617 8.83672 10.1804 8.99329 9.98051C8.99645 9.97652 8.99938 9.97242 9.00254 9.96844C9.22122 10.3443 9.52602 10.6717 9.9029 10.9139L11.531 11.9605C11.7131 12.0776 11.883 12.2146 12.0362 12.3677C12.836 13.1674 13.3611 14.1791 13.5548 15.2934L13.6268 15.7069C13.6794 16.0098 13.6682 16.3147 13.5937 16.6131C13.5545 16.7699 13.4967 16.9196 13.4248 17.0626C13.0016 17.2637 12.3753 17.6452 11.6704 18.3502C11.2015 18.8191 10.855 19.4414 10.6413 20.1994C10.3959 21.0693 9.8484 21.8204 9.09981 22.3145L6.06489 24.3176L6.19754 22.164C6.21161 21.9334 6.21044 21.7458 6.19379 21.5735ZM8.66329 8.0243L8.63962 8.2132C8.63821 8.22434 8.63797 8.23547 8.63668 8.2466C6.24313 8.10738 4.3202 6.76184 3.7754 6.34219C4.23278 5.67504 4.81754 4.91203 4.82422 4.90336C4.83301 4.89199 4.84063 4.87981 4.84719 4.86703L5.0859 4.3984L8.73594 7.66453C8.70465 7.78395 8.6784 7.90406 8.66329 8.0243ZM4.43915 4.63523C4.37961 4.71305 4.14032 5.02723 3.86282 5.4082C3.92762 5.16199 3.99911 4.94824 4.07704 4.79238C4.23618 4.47387 4.41536 4.18559 4.58012 3.94605L4.7245 4.0752L4.43915 4.63523ZM3.59422 6.7957C4.29172 7.31977 6.20762 8.58129 8.62485 8.71523C8.6402 8.97984 8.69293 9.23906 8.78012 9.48609C8.72774 9.55688 8.67547 9.6259 8.62438 9.69117C7.94188 10.5628 6.41903 11.0367 5.36504 10.7061C4.83606 10.5401 4.32196 10.1846 3.90887 9.7043L3.74247 9.08016C3.73836 9.06481 3.73274 9.04992 3.72559 9.03574L3.40368 8.39203C3.42231 8.18602 3.48653 7.5191 3.59422 6.7957ZM8.03528 11.9474C7.90309 12.2745 7.65137 12.5305 7.32665 12.6681C7.00192 12.806 6.64297 12.8089 6.3159 12.6765C5.75856 12.4512 5.44907 11.842 5.5502 11.2305C5.72997 11.2628 5.91571 11.2804 6.10555 11.2804C6.75805 11.2804 7.44829 11.0957 8.03083 10.7739C8.19782 11.0999 8.20391 11.5305 8.03528 11.9474ZM12.1476 6.15246L14.4516 6.8877C15.5356 7.23363 16.3728 8.13621 16.6364 9.24328C16.727 9.62402 16.8761 9.98637 17.0795 10.3204L17.9779 11.7964C18.116 12.0232 18.2254 12.2665 18.3047 12.5189C17.685 12.8455 16.4447 13.4823 16.0752 13.594C15.6662 13.7174 14.2869 14.0845 13.7556 14.2253C13.4625 13.4059 12.9929 12.6611 12.3677 12.036C12.191 11.8593 11.9948 11.7011 11.7846 11.5658L10.1565 10.5192C9.40708 10.0377 8.99434 9.15516 9.10485 8.27121L9.12852 8.0823C9.13004 8.07059 9.13297 8.05875 9.13461 8.04703L10.4464 9.43606C10.8219 9.83356 11.3857 10.0039 11.9184 9.88113L12.0525 9.85008C12.5373 9.73816 12.9409 9.39727 13.1321 8.93813C13.3664 8.37586 13.248 7.72641 12.8307 7.28355C12.5607 6.99691 12.1138 6.54961 11.6035 6.04934C11.7887 6.06223 11.9718 6.09633 12.1476 6.15246ZM2.54059 12.2694C2.43536 12.2774 2.33446 12.243 2.25583 12.1732L2.04583 11.9865C1.84872 11.8113 1.715 11.5719 1.66918 11.3122L1.49434 10.3218C1.44512 10.0429 1.49821 9.75551 1.64387 9.5127L2.07606 8.79246C2.09633 8.75859 2.10782 8.72027 2.10934 8.6809C2.11051 8.65031 2.22676 5.61469 2.22676 4.33594C2.22676 3.45258 2.60141 2.03871 2.82477 1.27477C2.8829 1.07625 3.06782 0.9375 3.27477 0.9375L4.33192 0.937383C4.71489 0.975234 7.1511 2.66789 8.0627 3.35156C8.39083 3.59777 11.5094 6.56473 12.4896 7.605C12.7802 7.91356 12.8627 8.36613 12.6995 8.75789C12.5661 9.07781 12.2848 9.31559 11.947 9.39352L11.8131 9.42445C11.4423 9.51023 11.0489 9.39141 10.7873 9.11438L9.31122 7.55145C9.30665 7.54664 9.30196 7.54207 9.29704 7.53773L4.85844 3.56602C5.01958 3.35906 5.13067 3.23836 5.13325 3.23555L4.78954 2.9168C4.76305 2.94527 4.13598 3.62625 3.65774 4.58273C3.17434 5.54953 2.94043 8.30133 2.93071 8.41816C2.92719 8.46094 2.9354 8.50395 2.95461 8.5425L3.29551 9.22418L3.73075 10.8562C3.73368 10.8671 3.73251 10.8787 3.72735 10.8888C3.71833 10.907 3.70309 10.9125 3.69208 10.9139C3.68059 10.9158 3.66489 10.9139 3.65141 10.8984L3.10626 10.2755C3.03793 10.1974 2.92626 10.1735 2.83215 10.2169C2.73782 10.2601 2.68321 10.3603 2.69786 10.4631L2.89321 11.831C2.90868 11.9387 2.87751 12.0484 2.80778 12.1321C2.7404 12.2128 2.64559 12.2617 2.54059 12.2694ZM22.4832 19.8148C21.5577 20.861 20.3728 21.6613 19.0568 22.1292L16.3279 23.0994C16.3126 23.1049 16.2979 23.1118 16.284 23.1204L12.0221 25.7297C11.0675 26.3142 6.43731 28.1127 6.40133 28.127C5.93891 28.2812 5.45715 28.3594 4.96954 28.3594H4.83946C4.32922 28.3594 3.87043 28.0759 3.64239 27.6196C3.32961 26.994 3.16426 26.2938 3.16426 25.5946V25.3854L5.59743 24.2805L5.57528 24.6404L4.67575 25.2341L4.93391 25.6253L9.35786 22.7054C10.2003 22.1495 10.8164 21.3046 11.0923 20.3264C11.2842 19.6465 11.5902 19.093 12.0018 18.6813C12.2886 18.3946 12.5595 18.1666 12.8065 17.9845L12.5245 18.3839C12.4939 18.4273 12.4625 18.4775 12.431 18.5334C12.0641 19.1871 12.0021 19.983 12.2612 20.7171L12.3182 20.8787L12.7602 20.7226L12.7031 20.561C12.489 19.9543 12.5388 19.2989 12.8396 18.763C12.8632 18.7211 12.886 18.6844 12.9073 18.6541L13.6412 17.6147C13.8314 17.3452 13.9684 17.0463 14.0484 16.7264C14.0813 16.5948 14.1037 16.4621 14.1163 16.329L15.0306 15.9404C15.8513 15.5709 16.7758 15.5177 17.6338 15.7909L18.5853 16.0937L18.6263 16.9304L16.7524 18.0814L16.9978 18.4808L20.0205 16.6242C21.8241 15.5166 23.7697 14.7216 25.8029 14.2615C25.861 14.2485 25.9145 14.2366 25.9627 14.2263C26.4239 14.1286 26.9127 14.2219 27.3043 14.483C27.692 14.7414 27.9397 15.1733 27.967 15.6383L28.0049 16.2817C28.0214 16.5634 27.9691 16.848 27.8537 17.1048C27.7541 17.3263 27.6255 17.6134 27.4767 17.948L24.2067 18.6046C24.2877 18.4366 24.3712 18.2992 24.4573 18.2034C25.4925 17.0532 25.8516 16.6923 25.8552 16.6889L25.5236 16.3575C25.5091 16.372 25.1557 16.7268 24.1088 17.8898C24.0238 17.9843 23.942 18.1077 23.8631 18.2543L22.4832 19.8148ZM27.8457 28.9684C27.8878 28.984 27.9161 29.0249 27.9161 29.0705C27.9161 29.1307 27.8672 29.1797 27.8069 29.1797H22.1629C21.8211 29.1797 21.5349 28.9234 21.4971 28.5838C21.4836 28.4625 21.5035 28.3398 21.5546 28.2289L22.8554 25.4107C22.8664 25.3868 22.8733 25.3611 22.8759 25.335C23.0049 23.9929 23.4151 20.8068 23.9968 19.1251L27.2441 18.4731C26.1782 20.8857 24.4513 24.9047 24.2859 25.98C24.0661 27.4104 26.7021 28.5465 27.8457 28.9684Z"/>
</mask>
<path d="M28.2814 17.2973C28.4277 16.9719 28.4939 16.6113 28.473 16.2545L28.4352 15.6111C28.3992 15 28.0738 14.4326 27.5645 14.0932C27.0686 13.7626 26.4493 13.6438 25.8656 13.7681C25.8158 13.7787 25.7605 13.7909 25.7 13.8046C23.6163 14.276 21.6228 15.0905 19.7754 16.2251L19.0822 16.6508L18.917 13.282C18.8822 12.6725 18.6959 12.0745 18.3784 11.5528L17.4799 10.0767C17.302 9.78469 17.1717 9.4677 17.0925 9.13488C16.7911 7.86902 15.8338 6.83695 14.5941 6.44133L12.2902 5.70609C11.9203 5.58809 11.5234 5.54965 11.1348 5.59242C9.93536 4.42805 8.58747 3.15926 8.34395 2.97656C8.31055 2.95148 4.96122 0.46875 4.33614 0.46875H3.27477C2.86098 0.46875 2.49102 0.746016 2.37489 1.14316C2.1445 1.93125 1.75801 3.39422 1.75801 4.33594C1.75801 5.50629 1.65958 8.16914 1.64329 8.60285L1.24215 9.27141C1.03836 9.61113 0.96395 10.0131 1.03286 10.4032L1.2077 11.3937C1.2718 11.7568 1.45895 12.0918 1.73458 12.3369L1.94458 12.5236C2.10254 12.664 2.30129 12.7393 2.51036 12.7393C2.53204 12.7393 2.55395 12.7385 2.57575 12.7369C2.61665 12.7338 2.65637 12.727 2.69563 12.7185V25.5945C2.69563 26.3661 2.87809 27.1389 3.22309 27.8291C3.53118 28.4453 4.15063 28.828 4.83946 28.828H4.96954C5.50766 28.828 6.03922 28.7418 6.56024 28.5676C6.75243 28.4931 11.2767 26.7356 12.2669 26.1293L16.5079 23.5328L19.2137 22.5708C20.6043 22.0763 21.8563 21.2306 22.8343 20.1252L23.3948 19.4916C22.7888 21.5929 22.4559 24.8194 22.4132 25.2502L21.1291 28.0324C21.0422 28.2207 21.0084 28.4293 21.0313 28.6355C21.0954 29.213 21.5819 29.6484 22.1629 29.6484H27.8069C28.1256 29.6484 28.3849 29.3892 28.3849 29.0705C28.3849 28.8295 28.2335 28.6118 28.008 28.5287C26.4192 27.9423 24.6124 26.9416 24.7494 26.0511C24.9043 25.044 26.6755 20.8689 28.2814 17.2973ZM14.1143 15.8208C14.1078 15.7559 14.0998 15.6911 14.0886 15.6262L14.0166 15.2128C13.9849 15.0301 13.9439 14.8504 13.8959 14.6732C14.4443 14.5279 15.7943 14.1684 16.2106 14.0429C16.6269 13.9172 17.8559 13.2838 18.4138 12.9913C18.4302 13.0959 18.4429 13.2012 18.4489 13.3069L18.5611 15.5941L17.7761 15.3444C16.8079 15.0368 15.7647 15.0966 14.8429 15.5113L14.1143 15.8208ZM3.1679 12.432C3.32247 12.2466 3.39149 12.0033 3.35727 11.7645L3.2736 11.1784L3.29856 11.207C3.41176 11.3364 3.58098 11.4007 3.75149 11.3788C3.77258 11.3761 3.79333 11.3721 3.8136 11.367L4.01176 12.1267C4.16247 12.7043 4.42555 13.2352 4.79387 13.7047L5.44192 14.5309C5.44626 14.5364 5.45083 14.5418 5.45563 14.547C5.63047 14.7326 5.62614 15.0192 5.44579 15.1996L4.83946 15.8059C4.73528 15.9101 4.68583 16.0593 4.70879 16.215L5.70817 21.4622C5.71567 21.5142 5.722 21.5665 5.72715 21.6187C5.74145 21.7658 5.74215 21.9299 5.72961 22.135L5.63012 23.7509L3.16426 24.8705V12.4359C3.16543 12.4345 3.16672 12.4334 3.1679 12.432ZM6.19379 21.5735C6.18805 21.5138 6.18079 21.4542 6.17047 21.3846L5.17098 16.1373L5.77731 15.531C6.13532 15.173 6.14657 14.6054 5.80485 14.2338L5.16278 13.4155C4.8343 12.9969 4.59969 12.5235 4.46528 12.0084L4.19118 10.9575C4.20418 10.8841 4.20313 10.8087 4.18368 10.7355L4.13961 10.5702C4.43938 10.804 4.76364 10.9863 5.09645 11.1075C4.93602 11.947 5.36352 12.7975 6.14012 13.1115C6.35704 13.1992 6.58415 13.243 6.81126 13.243C7.04809 13.243 7.28493 13.1953 7.50969 13.0999C7.94973 12.9132 8.29075 12.5665 8.46981 12.1234C8.69598 11.5643 8.67618 10.973 8.42879 10.5212C8.64501 10.3617 8.83672 10.1804 8.99329 9.98051C8.99645 9.97652 8.99938 9.97242 9.00254 9.96844C9.22122 10.3443 9.52602 10.6717 9.9029 10.9139L11.531 11.9605C11.7131 12.0776 11.883 12.2146 12.0362 12.3677C12.836 13.1674 13.3611 14.1791 13.5548 15.2934L13.6268 15.7069C13.6794 16.0098 13.6682 16.3147 13.5937 16.6131C13.5545 16.7699 13.4967 16.9196 13.4248 17.0626C13.0016 17.2637 12.3753 17.6452 11.6704 18.3502C11.2015 18.8191 10.855 19.4414 10.6413 20.1994C10.3959 21.0693 9.8484 21.8204 9.09981 22.3145L6.06489 24.3176L6.19754 22.164C6.21161 21.9334 6.21044 21.7458 6.19379 21.5735ZM8.66329 8.0243L8.63962 8.2132C8.63821 8.22434 8.63797 8.23547 8.63668 8.2466C6.24313 8.10738 4.3202 6.76184 3.7754 6.34219C4.23278 5.67504 4.81754 4.91203 4.82422 4.90336C4.83301 4.89199 4.84063 4.87981 4.84719 4.86703L5.0859 4.3984L8.73594 7.66453C8.70465 7.78395 8.6784 7.90406 8.66329 8.0243ZM4.43915 4.63523C4.37961 4.71305 4.14032 5.02723 3.86282 5.4082C3.92762 5.16199 3.99911 4.94824 4.07704 4.79238C4.23618 4.47387 4.41536 4.18559 4.58012 3.94605L4.7245 4.0752L4.43915 4.63523ZM3.59422 6.7957C4.29172 7.31977 6.20762 8.58129 8.62485 8.71523C8.6402 8.97984 8.69293 9.23906 8.78012 9.48609C8.72774 9.55688 8.67547 9.6259 8.62438 9.69117C7.94188 10.5628 6.41903 11.0367 5.36504 10.7061C4.83606 10.5401 4.32196 10.1846 3.90887 9.7043L3.74247 9.08016C3.73836 9.06481 3.73274 9.04992 3.72559 9.03574L3.40368 8.39203C3.42231 8.18602 3.48653 7.5191 3.59422 6.7957ZM8.03528 11.9474C7.90309 12.2745 7.65137 12.5305 7.32665 12.6681C7.00192 12.806 6.64297 12.8089 6.3159 12.6765C5.75856 12.4512 5.44907 11.842 5.5502 11.2305C5.72997 11.2628 5.91571 11.2804 6.10555 11.2804C6.75805 11.2804 7.44829 11.0957 8.03083 10.7739C8.19782 11.0999 8.20391 11.5305 8.03528 11.9474ZM12.1476 6.15246L14.4516 6.8877C15.5356 7.23363 16.3728 8.13621 16.6364 9.24328C16.727 9.62402 16.8761 9.98637 17.0795 10.3204L17.9779 11.7964C18.116 12.0232 18.2254 12.2665 18.3047 12.5189C17.685 12.8455 16.4447 13.4823 16.0752 13.594C15.6662 13.7174 14.2869 14.0845 13.7556 14.2253C13.4625 13.4059 12.9929 12.6611 12.3677 12.036C12.191 11.8593 11.9948 11.7011 11.7846 11.5658L10.1565 10.5192C9.40708 10.0377 8.99434 9.15516 9.10485 8.27121L9.12852 8.0823C9.13004 8.07059 9.13297 8.05875 9.13461 8.04703L10.4464 9.43606C10.8219 9.83356 11.3857 10.0039 11.9184 9.88113L12.0525 9.85008C12.5373 9.73816 12.9409 9.39727 13.1321 8.93813C13.3664 8.37586 13.248 7.72641 12.8307 7.28355C12.5607 6.99691 12.1138 6.54961 11.6035 6.04934C11.7887 6.06223 11.9718 6.09633 12.1476 6.15246ZM2.54059 12.2694C2.43536 12.2774 2.33446 12.243 2.25583 12.1732L2.04583 11.9865C1.84872 11.8113 1.715 11.5719 1.66918 11.3122L1.49434 10.3218C1.44512 10.0429 1.49821 9.75551 1.64387 9.5127L2.07606 8.79246C2.09633 8.75859 2.10782 8.72027 2.10934 8.6809C2.11051 8.65031 2.22676 5.61469 2.22676 4.33594C2.22676 3.45258 2.60141 2.03871 2.82477 1.27477C2.8829 1.07625 3.06782 0.9375 3.27477 0.9375L4.33192 0.937383C4.71489 0.975234 7.1511 2.66789 8.0627 3.35156C8.39083 3.59777 11.5094 6.56473 12.4896 7.605C12.7802 7.91356 12.8627 8.36613 12.6995 8.75789C12.5661 9.07781 12.2848 9.31559 11.947 9.39352L11.8131 9.42445C11.4423 9.51023 11.0489 9.39141 10.7873 9.11438L9.31122 7.55145C9.30665 7.54664 9.30196 7.54207 9.29704 7.53773L4.85844 3.56602C5.01958 3.35906 5.13067 3.23836 5.13325 3.23555L4.78954 2.9168C4.76305 2.94527 4.13598 3.62625 3.65774 4.58273C3.17434 5.54953 2.94043 8.30133 2.93071 8.41816C2.92719 8.46094 2.9354 8.50395 2.95461 8.5425L3.29551 9.22418L3.73075 10.8562C3.73368 10.8671 3.73251 10.8787 3.72735 10.8888C3.71833 10.907 3.70309 10.9125 3.69208 10.9139C3.68059 10.9158 3.66489 10.9139 3.65141 10.8984L3.10626 10.2755C3.03793 10.1974 2.92626 10.1735 2.83215 10.2169C2.73782 10.2601 2.68321 10.3603 2.69786 10.4631L2.89321 11.831C2.90868 11.9387 2.87751 12.0484 2.80778 12.1321C2.7404 12.2128 2.64559 12.2617 2.54059 12.2694ZM22.4832 19.8148C21.5577 20.861 20.3728 21.6613 19.0568 22.1292L16.3279 23.0994C16.3126 23.1049 16.2979 23.1118 16.284 23.1204L12.0221 25.7297C11.0675 26.3142 6.43731 28.1127 6.40133 28.127C5.93891 28.2812 5.45715 28.3594 4.96954 28.3594H4.83946C4.32922 28.3594 3.87043 28.0759 3.64239 27.6196C3.32961 26.994 3.16426 26.2938 3.16426 25.5946V25.3854L5.59743 24.2805L5.57528 24.6404L4.67575 25.2341L4.93391 25.6253L9.35786 22.7054C10.2003 22.1495 10.8164 21.3046 11.0923 20.3264C11.2842 19.6465 11.5902 19.093 12.0018 18.6813C12.2886 18.3946 12.5595 18.1666 12.8065 17.9845L12.5245 18.3839C12.4939 18.4273 12.4625 18.4775 12.431 18.5334C12.0641 19.1871 12.0021 19.983 12.2612 20.7171L12.3182 20.8787L12.7602 20.7226L12.7031 20.561C12.489 19.9543 12.5388 19.2989 12.8396 18.763C12.8632 18.7211 12.886 18.6844 12.9073 18.6541L13.6412 17.6147C13.8314 17.3452 13.9684 17.0463 14.0484 16.7264C14.0813 16.5948 14.1037 16.4621 14.1163 16.329L15.0306 15.9404C15.8513 15.5709 16.7758 15.5177 17.6338 15.7909L18.5853 16.0937L18.6263 16.9304L16.7524 18.0814L16.9978 18.4808L20.0205 16.6242C21.8241 15.5166 23.7697 14.7216 25.8029 14.2615C25.861 14.2485 25.9145 14.2366 25.9627 14.2263C26.4239 14.1286 26.9127 14.2219 27.3043 14.483C27.692 14.7414 27.9397 15.1733 27.967 15.6383L28.0049 16.2817C28.0214 16.5634 27.9691 16.848 27.8537 17.1048C27.7541 17.3263 27.6255 17.6134 27.4767 17.948L24.2067 18.6046C24.2877 18.4366 24.3712 18.2992 24.4573 18.2034C25.4925 17.0532 25.8516 16.6923 25.8552 16.6889L25.5236 16.3575C25.5091 16.372 25.1557 16.7268 24.1088 17.8898C24.0238 17.9843 23.942 18.1077 23.8631 18.2543L22.4832 19.8148ZM27.8457 28.9684C27.8878 28.984 27.9161 29.0249 27.9161 29.0705C27.9161 29.1307 27.8672 29.1797 27.8069 29.1797H22.1629C21.8211 29.1797 21.5349 28.9234 21.4971 28.5838C21.4836 28.4625 21.5035 28.3398 21.5546 28.2289L22.8554 25.4107C22.8664 25.3868 22.8733 25.3611 22.8759 25.335C23.0049 23.9929 23.4151 20.8068 23.9968 19.1251L27.2441 18.4731C26.1782 20.8857 24.4513 24.9047 24.2859 25.98C24.0661 27.4104 26.7021 28.5465 27.8457 28.9684Z" fill="#009FC2"/>
<path d="M28.2814 17.2973C28.4277 16.9719 28.4939 16.6113 28.473 16.2545L28.4352 15.6111C28.3992 15 28.0738 14.4326 27.5645 14.0932C27.0686 13.7626 26.4493 13.6438 25.8656 13.7681C25.8158 13.7787 25.7605 13.7909 25.7 13.8046C23.6163 14.276 21.6228 15.0905 19.7754 16.2251L19.0822 16.6508L18.917 13.282C18.8822 12.6725 18.6959 12.0745 18.3784 11.5528L17.4799 10.0767C17.302 9.78469 17.1717 9.4677 17.0925 9.13488C16.7911 7.86902 15.8338 6.83695 14.5941 6.44133L12.2902 5.70609C11.9203 5.58809 11.5234 5.54965 11.1348 5.59242C9.93536 4.42805 8.58747 3.15926 8.34395 2.97656C8.31055 2.95148 4.96122 0.46875 4.33614 0.46875H3.27477C2.86098 0.46875 2.49102 0.746016 2.37489 1.14316C2.1445 1.93125 1.75801 3.39422 1.75801 4.33594C1.75801 5.50629 1.65958 8.16914 1.64329 8.60285L1.24215 9.27141C1.03836 9.61113 0.96395 10.0131 1.03286 10.4032L1.2077 11.3937C1.2718 11.7568 1.45895 12.0918 1.73458 12.3369L1.94458 12.5236C2.10254 12.664 2.30129 12.7393 2.51036 12.7393C2.53204 12.7393 2.55395 12.7385 2.57575 12.7369C2.61665 12.7338 2.65637 12.727 2.69563 12.7185V25.5945C2.69563 26.3661 2.87809 27.1389 3.22309 27.8291C3.53118 28.4453 4.15063 28.828 4.83946 28.828H4.96954C5.50766 28.828 6.03922 28.7418 6.56024 28.5676C6.75243 28.4931 11.2767 26.7356 12.2669 26.1293L16.5079 23.5328L19.2137 22.5708C20.6043 22.0763 21.8563 21.2306 22.8343 20.1252L23.3948 19.4916C22.7888 21.5929 22.4559 24.8194 22.4132 25.2502L21.1291 28.0324C21.0422 28.2207 21.0084 28.4293 21.0313 28.6355C21.0954 29.213 21.5819 29.6484 22.1629 29.6484H27.8069C28.1256 29.6484 28.3849 29.3892 28.3849 29.0705C28.3849 28.8295 28.2335 28.6118 28.008 28.5287C26.4192 27.9423 24.6124 26.9416 24.7494 26.0511C24.9043 25.044 26.6755 20.8689 28.2814 17.2973ZM14.1143 15.8208C14.1078 15.7559 14.0998 15.6911 14.0886 15.6262L14.0166 15.2128C13.9849 15.0301 13.9439 14.8504 13.8959 14.6732C14.4443 14.5279 15.7943 14.1684 16.2106 14.0429C16.6269 13.9172 17.8559 13.2838 18.4138 12.9913C18.4302 13.0959 18.4429 13.2012 18.4489 13.3069L18.5611 15.5941L17.7761 15.3444C16.8079 15.0368 15.7647 15.0966 14.8429 15.5113L14.1143 15.8208ZM3.1679 12.432C3.32247 12.2466 3.39149 12.0033 3.35727 11.7645L3.2736 11.1784L3.29856 11.207C3.41176 11.3364 3.58098 11.4007 3.75149 11.3788C3.77258 11.3761 3.79333 11.3721 3.8136 11.367L4.01176 12.1267C4.16247 12.7043 4.42555 13.2352 4.79387 13.7047L5.44192 14.5309C5.44626 14.5364 5.45083 14.5418 5.45563 14.547C5.63047 14.7326 5.62614 15.0192 5.44579 15.1996L4.83946 15.8059C4.73528 15.9101 4.68583 16.0593 4.70879 16.215L5.70817 21.4622C5.71567 21.5142 5.722 21.5665 5.72715 21.6187C5.74145 21.7658 5.74215 21.9299 5.72961 22.135L5.63012 23.7509L3.16426 24.8705V12.4359C3.16543 12.4345 3.16672 12.4334 3.1679 12.432ZM6.19379 21.5735C6.18805 21.5138 6.18079 21.4542 6.17047 21.3846L5.17098 16.1373L5.77731 15.531C6.13532 15.173 6.14657 14.6054 5.80485 14.2338L5.16278 13.4155C4.8343 12.9969 4.59969 12.5235 4.46528 12.0084L4.19118 10.9575C4.20418 10.8841 4.20313 10.8087 4.18368 10.7355L4.13961 10.5702C4.43938 10.804 4.76364 10.9863 5.09645 11.1075C4.93602 11.947 5.36352 12.7975 6.14012 13.1115C6.35704 13.1992 6.58415 13.243 6.81126 13.243C7.04809 13.243 7.28493 13.1953 7.50969 13.0999C7.94973 12.9132 8.29075 12.5665 8.46981 12.1234C8.69598 11.5643 8.67618 10.973 8.42879 10.5212C8.64501 10.3617 8.83672 10.1804 8.99329 9.98051C8.99645 9.97652 8.99938 9.97242 9.00254 9.96844C9.22122 10.3443 9.52602 10.6717 9.9029 10.9139L11.531 11.9605C11.7131 12.0776 11.883 12.2146 12.0362 12.3677C12.836 13.1674 13.3611 14.1791 13.5548 15.2934L13.6268 15.7069C13.6794 16.0098 13.6682 16.3147 13.5937 16.6131C13.5545 16.7699 13.4967 16.9196 13.4248 17.0626C13.0016 17.2637 12.3753 17.6452 11.6704 18.3502C11.2015 18.8191 10.855 19.4414 10.6413 20.1994C10.3959 21.0693 9.8484 21.8204 9.09981 22.3145L6.06489 24.3176L6.19754 22.164C6.21161 21.9334 6.21044 21.7458 6.19379 21.5735ZM8.66329 8.0243L8.63962 8.2132C8.63821 8.22434 8.63797 8.23547 8.63668 8.2466C6.24313 8.10738 4.3202 6.76184 3.7754 6.34219C4.23278 5.67504 4.81754 4.91203 4.82422 4.90336C4.83301 4.89199 4.84063 4.87981 4.84719 4.86703L5.0859 4.3984L8.73594 7.66453C8.70465 7.78395 8.6784 7.90406 8.66329 8.0243ZM4.43915 4.63523C4.37961 4.71305 4.14032 5.02723 3.86282 5.4082C3.92762 5.16199 3.99911 4.94824 4.07704 4.79238C4.23618 4.47387 4.41536 4.18559 4.58012 3.94605L4.7245 4.0752L4.43915 4.63523ZM3.59422 6.7957C4.29172 7.31977 6.20762 8.58129 8.62485 8.71523C8.6402 8.97984 8.69293 9.23906 8.78012 9.48609C8.72774 9.55688 8.67547 9.6259 8.62438 9.69117C7.94188 10.5628 6.41903 11.0367 5.36504 10.7061C4.83606 10.5401 4.32196 10.1846 3.90887 9.7043L3.74247 9.08016C3.73836 9.06481 3.73274 9.04992 3.72559 9.03574L3.40368 8.39203C3.42231 8.18602 3.48653 7.5191 3.59422 6.7957ZM8.03528 11.9474C7.90309 12.2745 7.65137 12.5305 7.32665 12.6681C7.00192 12.806 6.64297 12.8089 6.3159 12.6765C5.75856 12.4512 5.44907 11.842 5.5502 11.2305C5.72997 11.2628 5.91571 11.2804 6.10555 11.2804C6.75805 11.2804 7.44829 11.0957 8.03083 10.7739C8.19782 11.0999 8.20391 11.5305 8.03528 11.9474ZM12.1476 6.15246L14.4516 6.8877C15.5356 7.23363 16.3728 8.13621 16.6364 9.24328C16.727 9.62402 16.8761 9.98637 17.0795 10.3204L17.9779 11.7964C18.116 12.0232 18.2254 12.2665 18.3047 12.5189C17.685 12.8455 16.4447 13.4823 16.0752 13.594C15.6662 13.7174 14.2869 14.0845 13.7556 14.2253C13.4625 13.4059 12.9929 12.6611 12.3677 12.036C12.191 11.8593 11.9948 11.7011 11.7846 11.5658L10.1565 10.5192C9.40708 10.0377 8.99434 9.15516 9.10485 8.27121L9.12852 8.0823C9.13004 8.07059 9.13297 8.05875 9.13461 8.04703L10.4464 9.43606C10.8219 9.83356 11.3857 10.0039 11.9184 9.88113L12.0525 9.85008C12.5373 9.73816 12.9409 9.39727 13.1321 8.93813C13.3664 8.37586 13.248 7.72641 12.8307 7.28355C12.5607 6.99691 12.1138 6.54961 11.6035 6.04934C11.7887 6.06223 11.9718 6.09633 12.1476 6.15246ZM2.54059 12.2694C2.43536 12.2774 2.33446 12.243 2.25583 12.1732L2.04583 11.9865C1.84872 11.8113 1.715 11.5719 1.66918 11.3122L1.49434 10.3218C1.44512 10.0429 1.49821 9.75551 1.64387 9.5127L2.07606 8.79246C2.09633 8.75859 2.10782 8.72027 2.10934 8.6809C2.11051 8.65031 2.22676 5.61469 2.22676 4.33594C2.22676 3.45258 2.60141 2.03871 2.82477 1.27477C2.8829 1.07625 3.06782 0.9375 3.27477 0.9375L4.33192 0.937383C4.71489 0.975234 7.1511 2.66789 8.0627 3.35156C8.39083 3.59777 11.5094 6.56473 12.4896 7.605C12.7802 7.91356 12.8627 8.36613 12.6995 8.75789C12.5661 9.07781 12.2848 9.31559 11.947 9.39352L11.8131 9.42445C11.4423 9.51023 11.0489 9.39141 10.7873 9.11438L9.31122 7.55145C9.30665 7.54664 9.30196 7.54207 9.29704 7.53773L4.85844 3.56602C5.01958 3.35906 5.13067 3.23836 5.13325 3.23555L4.78954 2.9168C4.76305 2.94527 4.13598 3.62625 3.65774 4.58273C3.17434 5.54953 2.94043 8.30133 2.93071 8.41816C2.92719 8.46094 2.9354 8.50395 2.95461 8.5425L3.29551 9.22418L3.73075 10.8562C3.73368 10.8671 3.73251 10.8787 3.72735 10.8888C3.71833 10.907 3.70309 10.9125 3.69208 10.9139C3.68059 10.9158 3.66489 10.9139 3.65141 10.8984L3.10626 10.2755C3.03793 10.1974 2.92626 10.1735 2.83215 10.2169C2.73782 10.2601 2.68321 10.3603 2.69786 10.4631L2.89321 11.831C2.90868 11.9387 2.87751 12.0484 2.80778 12.1321C2.7404 12.2128 2.64559 12.2617 2.54059 12.2694ZM22.4832 19.8148C21.5577 20.861 20.3728 21.6613 19.0568 22.1292L16.3279 23.0994C16.3126 23.1049 16.2979 23.1118 16.284 23.1204L12.0221 25.7297C11.0675 26.3142 6.43731 28.1127 6.40133 28.127C5.93891 28.2812 5.45715 28.3594 4.96954 28.3594H4.83946C4.32922 28.3594 3.87043 28.0759 3.64239 27.6196C3.32961 26.994 3.16426 26.2938 3.16426 25.5946V25.3854L5.59743 24.2805L5.57528 24.6404L4.67575 25.2341L4.93391 25.6253L9.35786 22.7054C10.2003 22.1495 10.8164 21.3046 11.0923 20.3264C11.2842 19.6465 11.5902 19.093 12.0018 18.6813C12.2886 18.3946 12.5595 18.1666 12.8065 17.9845L12.5245 18.3839C12.4939 18.4273 12.4625 18.4775 12.431 18.5334C12.0641 19.1871 12.0021 19.983 12.2612 20.7171L12.3182 20.8787L12.7602 20.7226L12.7031 20.561C12.489 19.9543 12.5388 19.2989 12.8396 18.763C12.8632 18.7211 12.886 18.6844 12.9073 18.6541L13.6412 17.6147C13.8314 17.3452 13.9684 17.0463 14.0484 16.7264C14.0813 16.5948 14.1037 16.4621 14.1163 16.329L15.0306 15.9404C15.8513 15.5709 16.7758 15.5177 17.6338 15.7909L18.5853 16.0937L18.6263 16.9304L16.7524 18.0814L16.9978 18.4808L20.0205 16.6242C21.8241 15.5166 23.7697 14.7216 25.8029 14.2615C25.861 14.2485 25.9145 14.2366 25.9627 14.2263C26.4239 14.1286 26.9127 14.2219 27.3043 14.483C27.692 14.7414 27.9397 15.1733 27.967 15.6383L28.0049 16.2817C28.0214 16.5634 27.9691 16.848 27.8537 17.1048C27.7541 17.3263 27.6255 17.6134 27.4767 17.948L24.2067 18.6046C24.2877 18.4366 24.3712 18.2992 24.4573 18.2034C25.4925 17.0532 25.8516 16.6923 25.8552 16.6889L25.5236 16.3575C25.5091 16.372 25.1557 16.7268 24.1088 17.8898C24.0238 17.9843 23.942 18.1077 23.8631 18.2543L22.4832 19.8148ZM27.8457 28.9684C27.8878 28.984 27.9161 29.0249 27.9161 29.0705C27.9161 29.1307 27.8672 29.1797 27.8069 29.1797H22.1629C21.8211 29.1797 21.5349 28.9234 21.4971 28.5838C21.4836 28.4625 21.5035 28.3398 21.5546 28.2289L22.8554 25.4107C22.8664 25.3868 22.8733 25.3611 22.8759 25.335C23.0049 23.9929 23.4151 20.8068 23.9968 19.1251L27.2441 18.4731C26.1782 20.8857 24.4513 24.9047 24.2859 25.98C24.0661 27.4104 26.7021 28.5465 27.8457 28.9684Z" stroke="#009FC2" stroke-width="0.4" mask="url(#path-1-outside-1_561_8680)"/>
</svg>
