<svg width="50" height="50" viewBox="0 0 50 50" fill="none" xmlns="http://www.w3.org/2000/svg">
<g clip-path="url(#clip0_561_5108)">
<g clip-path="url(#clip1_561_5108)">
<path d="M35.9237 33.1702C35.9237 32.0578 35.4037 31.0667 34.5878 30.4305C35.4036 29.7942 35.9329 28.8031 35.9329 27.6907C35.9329 26.5195 35.3267 25.4826 34.436 24.853C35.3328 24.1446 35.887 23.0487 35.887 21.8198V14.5254L28.8646 5.38164H30.4076V0H19.5465V5.38164H21.1872L14.0671 14.5254V21.82C14.0671 23.0489 14.6687 24.1447 15.5655 24.8532C14.6748 25.4828 14.1038 26.5196 14.1038 27.6909C14.1038 28.8033 14.6361 29.7944 15.4519 30.4307C14.6361 31.0669 14.113 32.058 14.113 33.1704C14.113 34.3416 14.6732 35.3785 15.564 36.0081C14.6672 36.7165 14.0671 37.8124 14.0671 39.0413V45.3035C14.0671 47.4347 15.8499 49.2174 17.9809 49.2174H21.8948V49.153C22.5463 49.653 23.3603 50.0002 24.2432 50.0002H25.8087C26.6915 50.0002 27.5056 49.6531 28.157 49.153V49.2174H32.0709C34.202 49.2174 35.8869 47.4346 35.8869 45.3035V39.0413C35.8869 37.8124 35.3342 36.7166 34.4374 36.0081C35.3282 35.3784 35.9237 34.3415 35.9237 33.1702ZM21.0142 3.91387V1.46768H28.9399V3.91387H21.0142ZM23.039 5.38164H27.0128L33.7116 14.09H16.3401L23.039 5.38164ZM32.4624 31.2133C33.5684 31.2133 34.4683 32.1131 34.4683 33.2191C34.4683 34.3252 33.5684 35.225 32.4624 35.225H30.5055V36.6927H32.071C33.3929 36.6927 34.4193 37.7191 34.4193 39.041V45.3032C34.4193 46.6251 33.393 47.7494 32.071 47.7494H29.319C29.5461 47.1623 29.6737 46.6621 29.6737 46.086H28.206C28.206 47.4079 27.1307 48.5322 25.8088 48.5322H24.2432C22.9214 48.5322 21.8459 47.408 21.8459 46.086H20.3782C20.3782 46.6622 20.5058 47.1624 20.7329 47.7494H17.9809C16.6592 47.7494 15.5348 46.6252 15.5348 45.3032V39.041C15.5348 37.7191 16.6591 36.6927 17.9809 36.6927H25.8088V35.225H17.5896C16.4836 35.225 15.5838 34.3252 15.5838 33.2191C15.5838 32.1131 16.4836 31.2133 17.5896 31.2133H25.8088V29.7456H17.5896C16.4836 29.7456 15.5838 28.8458 15.5838 27.7397C15.5838 26.6337 16.4836 25.7339 17.5896 25.7339H25.8088V24.2662H17.9809C16.6592 24.2662 15.5348 23.142 15.5348 21.82V15.5578H34.4193V21.82C34.4193 23.1419 33.393 24.2662 32.071 24.2662H30.5055V25.7339H32.4624C33.5684 25.7339 34.4683 26.6337 34.4683 27.7397C34.4683 28.8458 33.5684 29.7456 32.4624 29.7456H30.5055V31.2133H32.4624Z" fill="white"/>
<path d="M21.1124 10.9589H19.5469V12.4265H21.1124V10.9589Z" fill="white"/>
<path d="M22.678 9.39331H21.1125V10.861H22.678V9.39331Z" fill="white"/>
<path d="M28.9402 29.7456H27.3747V31.2133H28.9402V29.7456Z" fill="white"/>
<path d="M28.9402 24.2661H27.3747V25.7338H28.9402V24.2661Z" fill="white"/>
<path d="M28.9402 35.225H27.3747V36.6927H28.9402V35.225Z" fill="white"/>
</g>
</g>
<defs>
<clipPath id="clip0_561_5108">
<rect width="50" height="50" fill="white"/>
</clipPath>
<clipPath id="clip1_561_5108">
<rect width="50" height="50" fill="white"/>
</clipPath>
</defs>
</svg>
