<svg width="50" height="50" viewBox="0 0 50 50" fill="none" xmlns="http://www.w3.org/2000/svg">
<path d="M2.35888 38.4345C2.38036 38.5419 2.42419 38.6436 2.48752 38.733C2.55085 38.8224 2.63226 38.8974 2.72648 38.9533C2.8207 39.0092 2.92561 39.0446 3.03441 39.0573C3.1432 39.07 3.25346 39.0597 3.35801 39.027L7.96318 37.5879C7.72041 38.4222 7.7727 39.3147 8.11125 40.1149C8.44979 40.9151 9.05388 41.5741 9.82168 41.9809C9.84453 41.9929 9.86797 42.0039 9.89189 42.0137L17.3168 45.0461L18.0088 47.1222C18.0607 47.2777 18.1602 47.413 18.2932 47.5089C18.4262 47.6047 18.586 47.6563 18.75 47.6563H26.5625C26.6638 47.6563 26.7641 47.6366 26.8578 47.5983L40.5318 42.0136C40.5558 42.0038 40.5792 41.9928 40.6021 41.9808C41.3471 41.586 41.9386 40.9534 42.2825 40.1836C42.6264 39.4138 42.7028 38.551 42.4997 37.7327L46.642 39.0273C46.7465 39.06 46.8568 39.0703 46.9656 39.0576C47.0744 39.0449 47.1793 39.0094 47.2735 38.9536C47.3677 38.8977 47.4492 38.8226 47.5125 38.7333C47.5758 38.6439 47.6196 38.5422 47.6411 38.4348L48.4224 34.5285C48.4597 34.3418 48.4276 34.1479 48.332 33.9832C48.2364 33.8185 48.084 33.6944 47.9033 33.6342L45.5596 32.853C45.3992 32.7994 45.2258 32.7994 45.0654 32.853L43.0708 33.5178L37.4002 29.9737L35.5252 22.4737C35.3752 21.8722 35.0967 21.3104 34.7088 20.8269C34.321 20.3433 33.833 19.9495 33.2784 19.6726C33.2437 19.6552 28.1252 18.1101 28.1252 18.1101V16.073C28.1252 16.0465 28.1239 16.02 28.1212 15.9936C28.614 15.5547 29.0083 15.0166 29.2783 14.4145C29.5482 13.8123 29.6877 13.1599 29.6875 12.5V9.37503C29.6875 8.70056 29.5416 8.03407 29.2599 7.42125C28.9782 6.80843 28.5673 6.26378 28.0554 5.82464L27.8376 4.73529C27.6975 4.03479 27.3699 3.38545 26.8898 2.85651C26.4096 2.32757 25.7949 1.93887 25.1112 1.73185C24.4275 1.52484 23.7004 1.50727 23.0075 1.68103C22.3146 1.85479 21.6818 2.21335 21.1767 2.71849C20.1564 3.73317 19.3476 4.94012 18.797 6.26949C18.2463 7.59885 17.9648 9.02423 17.9687 10.4631V10.6836C17.9695 11.3542 17.8043 12.0146 17.4879 12.6059C17.1714 13.1971 16.7136 13.7009 16.1553 14.0723L15.9729 14.1938C15.859 14.2697 15.7671 14.3742 15.7063 14.4968C15.6455 14.6194 15.618 14.7558 15.6265 14.8924C15.635 15.029 15.6792 15.1609 15.7547 15.275C15.8303 15.3891 15.9344 15.4814 16.0568 15.5426L16.6623 15.8453C17.447 16.2365 18.312 16.4396 19.1888 16.4384C20.0656 16.4372 20.93 16.2319 21.7137 15.8386C21.7662 15.8907 21.82 15.9412 21.8749 15.9902V18.1093C21.8749 18.1093 16.7564 19.6543 16.7217 19.6718C16.1671 19.9488 15.6791 20.3425 15.2913 20.8261C14.9034 21.3096 14.6249 21.8714 14.4749 22.4729L12.5999 29.9729L6.9292 33.5175L4.93457 32.8527C4.7742 32.7992 4.60079 32.7992 4.44043 32.8527L2.09668 33.6339C1.91604 33.6941 1.7636 33.8182 1.66802 33.9829C1.57244 34.1476 1.5403 34.3415 1.57763 34.5283L2.35888 38.4345ZM17.8276 43.5671L10.5207 40.5827C10.1291 40.3672 9.8119 40.038 9.61103 39.6387C9.41017 39.2393 9.33502 38.7884 9.39549 38.3455C9.45596 37.9025 9.6492 37.4883 9.94977 37.1574C10.2503 36.8264 10.6441 36.5943 11.0792 36.4916C11.2307 36.4558 11.3854 36.4359 11.541 36.4321H11.5436C11.9955 36.4218 12.4395 36.5518 12.8146 36.804C12.8252 36.8111 12.8359 36.8179 12.847 36.8244L22.7884 42.7705L21.9248 42.9433L19.7778 42.2277C19.6402 42.1818 19.4925 42.1751 19.3513 42.2084C19.2101 42.2418 19.0809 42.3138 18.9783 42.4163L17.8276 43.5671ZM14.0086 35.6986L14.9852 35.3933C15.3609 35.275 15.709 35.0825 16.009 34.8272C16.309 34.5719 16.5547 34.259 16.7316 33.9071L19.0229 29.3262L19.5312 29.9616V31.017C19.5314 31.6048 19.4366 32.1888 19.2506 32.7464L18.79 34.128L18.0674 36.2968L16.9227 37.4414L14.0086 35.6986ZM19.3131 46.0938L18.8626 44.7423L19.7423 43.8626L21.6279 44.4911C21.7569 44.5342 21.895 44.5428 22.0283 44.5161L25.1685 43.8881L25.6096 46.0938H19.3131ZM25.4959 42.2291L25.068 42.3147C25.0597 42.3093 25.052 42.3035 25.0434 42.2983L18.3051 38.2683L19.3021 37.2712C19.3879 37.1854 19.4525 37.0809 19.4909 36.9659L20.0943 35.1563H29.9056L30.5088 36.9659C30.5472 37.0809 30.6118 37.1854 30.6976 37.2712L31.8532 38.4268L25.4959 42.2291ZM29.267 33.2406L29.3848 33.5938H20.6152L20.733 33.2405C20.9721 32.5236 21.094 31.7728 21.0938 31.017V30.4688H28.9062V31.017C28.9061 31.7728 29.0279 32.5236 29.267 33.2406ZM30.4688 31.017V29.9616L30.9771 29.3261L33.2676 33.9071C33.4445 34.259 33.6902 34.5719 33.9902 34.8272C34.2902 35.0825 34.6384 35.275 35.0142 35.3933L36.2693 35.7855L33.2359 37.5998L31.9328 36.2968L31.2102 34.128L30.7496 32.7465C30.5635 32.1889 30.4687 31.6049 30.4688 31.017ZM40.9604 39.2611C40.8805 39.5405 40.7457 39.8012 40.5641 40.0281C40.3824 40.255 40.1575 40.4435 39.9023 40.5827L27.143 45.7941L26.6555 43.3563L37.5764 36.8244C37.5874 36.8179 37.5981 36.8111 37.6087 36.804C37.9861 36.5524 38.4317 36.4229 38.8851 36.433C39.3386 36.4431 39.7779 36.5924 40.1437 36.8605C40.5096 37.1287 40.7841 37.5028 40.9302 37.9322C41.0763 38.3615 41.0868 38.8255 40.9604 39.2611ZM32.0312 23.2129V20.9001L32.628 21.0944C32.9692 21.2734 33.2687 21.5225 33.5067 21.8255C33.7448 22.1284 33.916 22.4783 34.0093 22.8522L35.9608 30.6584C36.0099 30.8547 36.1332 31.0243 36.3047 31.1315L42.5547 35.0377C42.6523 35.0987 42.7622 35.1374 42.8765 35.151C42.9908 35.1646 43.1066 35.1527 43.2158 35.1163L45.3125 34.4173L46.755 34.8981L46.2793 37.2766L41.1676 35.6792C40.4422 35.105 39.5299 34.8197 38.6065 34.8784L35.4803 33.9019C35.3049 33.8467 35.1425 33.7569 35.0025 33.6378C34.8625 33.5187 34.7478 33.3727 34.6652 33.2085L32.0301 27.9382C32.4563 27.2239 32.6815 26.4076 32.6817 25.5757C32.6819 24.7439 32.4572 23.9275 32.0312 23.2129ZM28.125 12.5C28.125 13.3288 27.7958 14.1237 27.2097 14.7097C26.6237 15.2958 25.8288 15.625 25 15.625C24.1712 15.625 23.3763 15.2958 22.7903 14.7097C22.2042 14.1237 21.875 13.3288 21.875 12.5V9.55189C23.731 10.8082 25.8885 11.5467 28.125 11.6913V12.5ZM27.1905 19.5161L27.3437 19.5468V22.2657L25 24.0235L22.6562 22.2657V19.5468L22.8095 19.5161C22.9866 19.4807 23.1459 19.385 23.2604 19.2454C23.3749 19.1057 23.4375 18.9306 23.4375 18.75V16.9188C24.4484 17.2771 25.5516 17.2771 26.5625 16.9188V18.75C26.5625 18.9306 26.6251 19.1057 26.7396 19.2454C26.8541 19.385 27.0134 19.4807 27.1905 19.5161ZM28.125 9.37503V10.1262C26.0317 9.9726 24.0259 9.22408 22.3438 7.96878C22.3118 7.94521 22.2781 7.92412 22.243 7.9057C22.5706 7.29054 23.0946 6.80261 23.7315 6.5195C24.3683 6.23639 25.0816 6.17436 25.7578 6.34327C26.434 6.51219 27.0343 6.90235 27.4632 7.4517C27.8922 8.00105 28.1251 8.67806 28.125 9.37503ZM20.3125 9.37503V12.5C20.3118 13.2097 20.4732 13.9102 20.7845 14.548C19.8648 14.9405 18.8331 14.9822 17.8848 14.6652C18.4075 14.1424 18.822 13.5216 19.1045 12.8384C19.3871 12.1552 19.5321 11.4229 19.5312 10.6836V10.4632C19.5279 9.2296 19.7692 8.00757 20.2413 6.86786C20.7134 5.72815 21.4069 4.69339 22.2815 3.82347C22.5755 3.52946 22.9412 3.31744 23.3424 3.20847C23.7436 3.0995 24.1663 3.09736 24.5686 3.20227C24.9708 3.30718 25.3387 3.51549 25.6356 3.80651C25.9324 4.09754 26.148 4.46115 26.2609 4.86126C25.5645 4.66618 24.8323 4.63501 24.1217 4.7702C23.4112 4.90539 22.7416 5.20325 22.1654 5.64047C21.5893 6.07768 21.1221 6.64237 20.8007 7.29028C20.4792 7.9382 20.3121 8.65175 20.3125 9.37503ZM19.4 23.8709C19.4856 23.7426 19.5312 23.5918 19.5312 23.4375V20.409L21.0938 19.95V22.6563C21.0938 22.7776 21.122 22.8972 21.1762 23.0057C21.2305 23.1141 21.3092 23.2085 21.4062 23.2813L24.5312 25.625C24.6665 25.7265 24.831 25.7813 25 25.7813C25.169 25.7813 25.3335 25.7265 25.4687 25.625L28.5937 23.2813C28.6908 23.2085 28.7695 23.1141 28.8238 23.0057C28.878 22.8972 28.9062 22.7776 28.9062 22.6563V19.95L30.4688 20.409V23.4375C30.4688 23.5918 30.5144 23.7426 30.6 23.8709C30.9631 24.4126 31.1437 25.0561 31.1154 25.7077C31.0871 26.3592 30.8515 26.9846 30.4428 27.4928L29.312 28.9063H20.688L19.5572 27.4928C19.1485 26.9846 18.9129 26.3592 18.8846 25.7077C18.8563 25.0561 19.0369 24.4126 19.4 23.8709ZM4.6875 34.4173L6.78418 35.1161C6.89336 35.1525 7.00925 35.1644 7.12354 35.1508C7.23783 35.1372 7.3477 35.0985 7.44531 35.0375L13.6953 31.1313C13.8668 31.0241 13.9901 30.8545 14.0392 30.6582L15.9907 22.8516C16.084 22.4777 16.2552 22.1279 16.4933 21.8249C16.7313 21.5219 17.0308 21.2728 17.372 21.0938L17.9687 20.9001V23.2129C17.5428 23.9275 17.3181 24.744 17.3183 25.5758C17.3185 26.4077 17.5437 27.2241 17.97 27.9384L15.3349 33.2087C15.2523 33.3729 15.1376 33.5189 14.9977 33.638C14.8577 33.7571 14.6952 33.8469 14.5199 33.9021L11.402 34.8765C10.7461 34.9063 10.1099 35.1094 9.5581 35.4651C9.51514 35.4709 3.7208 37.2768 3.7208 37.2768L3.24502 34.8983L4.6875 34.4173Z" fill="white"/>
<path d="M47.6562 17.9688H45.1943C45.0865 17.534 44.9045 17.1211 44.6564 16.7481L43.6187 15.1916C43.5474 15.0846 43.4507 14.9969 43.3373 14.9362C43.2239 14.8755 43.0973 14.8438 42.9687 14.8438C42.8401 14.8438 42.7135 14.8755 42.6001 14.9362C42.4867 14.9969 42.3901 15.0846 42.3187 15.1916L41.281 16.7481C41.0329 17.1211 40.8509 17.534 40.7431 17.9688H38.2812C38.1481 17.9688 38.0171 18.0029 37.9008 18.0677C37.7845 18.1326 37.6867 18.2261 37.6167 18.3394C37.5467 18.4527 37.5068 18.582 37.5008 18.715C37.4948 18.848 37.5229 18.9804 37.5825 19.0995L38.4971 20.9289C38.7551 21.4492 39.1537 21.8869 39.6477 22.1922C40.1418 22.4975 40.7115 22.6583 41.2923 22.6563H44.6452C45.226 22.6583 45.7957 22.4975 46.2897 22.1922C46.7837 21.8869 47.1823 21.4492 47.4403 20.9289L48.355 19.0995C48.4145 18.9804 48.4426 18.848 48.4367 18.715C48.4307 18.582 48.3908 18.4527 48.3208 18.3394C48.2508 18.2261 48.153 18.1326 48.0367 18.0677C47.9204 18.0029 47.7894 17.9688 47.6562 17.9688ZM39.8946 20.2301L39.5453 19.5313H40.6593C40.7311 20.0858 40.9225 20.618 41.2202 21.0913C40.9424 21.0796 40.6728 20.9935 40.4396 20.842C40.2064 20.6905 40.0182 20.4792 39.8946 20.2301ZM43.75 19.0181C43.7508 19.3261 43.6906 19.6311 43.5727 19.9156C43.4549 20.2001 43.2818 20.4583 43.0635 20.6755L42.9687 20.7702L42.8739 20.6754C42.6556 20.4583 42.4825 20.2 42.3647 19.9155C42.2468 19.6311 42.1866 19.326 42.1875 19.0181V18.915C42.1871 18.4522 42.324 17.9998 42.581 17.6149L42.9687 17.0335L43.3564 17.6149C43.6134 17.9998 43.7504 18.4522 43.75 18.915V19.0181ZM46.0428 20.2301C45.9193 20.4792 45.731 20.6905 45.4979 20.842C45.2647 20.9935 44.9951 21.0796 44.7173 21.0913C45.0149 20.618 45.2063 20.0858 45.2782 19.5313H46.3922L46.0428 20.2301Z" fill="white"/>
<path d="M11.7188 18.75H9.25684C9.14904 18.3152 8.96707 17.9022 8.71895 17.5293L7.68125 15.9728C7.60991 15.8658 7.51325 15.7781 7.39986 15.7174C7.28647 15.6567 7.15986 15.625 7.03125 15.625C6.90265 15.625 6.77604 15.6567 6.66265 15.7174C6.54926 15.7781 6.4526 15.8658 6.38125 15.9728L5.34356 17.5293C5.09543 17.9022 4.91347 18.3152 4.80567 18.75H2.34375C2.21058 18.75 2.07963 18.784 1.96332 18.8489C1.847 18.9137 1.7492 19.0072 1.67919 19.1205C1.60919 19.2338 1.5693 19.3631 1.56332 19.4961C1.55734 19.6292 1.58546 19.7615 1.64502 19.8806L2.55967 21.71C2.81764 22.2304 3.21624 22.668 3.71028 22.9733C4.20431 23.2787 4.77402 23.4395 5.35479 23.4375H8.70772C9.28849 23.4395 9.85819 23.2787 10.3522 22.9733C10.8463 22.668 11.2449 22.2304 11.5028 21.71L12.4175 19.8806C12.477 19.7615 12.5052 19.6292 12.4992 19.4961C12.4932 19.3631 12.4533 19.2338 12.3833 19.1205C12.3133 19.0072 12.2155 18.9137 12.0992 18.8489C11.9829 18.784 11.8519 18.75 11.7188 18.75ZM3.95713 21.0112L3.60782 20.3125H4.72178C4.79376 20.867 4.98531 21.3992 5.28321 21.8724C5.0053 21.8608 4.73561 21.7748 4.50233 21.6233C4.26906 21.4718 4.08076 21.2604 3.95713 21.0112ZM7.8125 19.7993C7.81336 20.1072 7.75312 20.4123 7.63528 20.6967C7.51743 20.9812 7.34433 21.2395 7.12598 21.4566L7.03125 21.5513L6.93643 21.4565C6.71811 21.2394 6.54502 20.9811 6.4272 20.6967C6.30937 20.4122 6.24914 20.1072 6.25 19.7993V19.6962C6.24958 19.2334 6.38656 18.7809 6.64356 18.3961L7.03125 17.8146L7.41895 18.3961C7.67595 18.7809 7.81292 19.2334 7.8125 19.6962V19.7993ZM10.1054 21.0112C9.98178 21.2603 9.79356 21.4716 9.56038 21.6231C9.3272 21.7746 9.05762 21.8607 8.77979 21.8724C9.07747 21.3992 9.26886 20.8669 9.34073 20.3125H10.4547L10.1054 21.0112Z" fill="white"/>
</svg>
