<svg width="50" height="50" viewBox="0 0 50 50" fill="none" xmlns="http://www.w3.org/2000/svg">
<path d="M44.5312 6.25H40.625V4.6875C40.625 3.8587 40.2958 3.06384 39.7097 2.47779C39.1237 1.89174 38.3288 1.5625 37.5 1.5625C36.6712 1.5625 35.8763 1.89174 35.2903 2.47779C34.7042 3.06384 34.375 3.8587 34.375 4.6875V6.25H15.625V4.6875C15.625 3.8587 15.2958 3.06384 14.7097 2.47779C14.1237 1.89174 13.3288 1.5625 12.5 1.5625C11.6712 1.5625 10.8763 1.89174 10.2903 2.47779C9.70424 3.06384 9.375 3.8587 9.375 4.6875V6.25H5.46875C4.43275 6.25 3.43918 6.66155 2.70661 7.39411C1.97405 8.12668 1.5625 9.12025 1.5625 10.1562V41.4062C1.5625 42.4423 1.97405 43.4358 2.70661 44.1684C3.43918 44.901 4.43275 45.3125 5.46875 45.3125H27.3438C27.551 45.3125 27.7497 45.2302 27.8962 45.0837C28.0427 44.9372 28.125 44.7384 28.125 44.5312C28.125 44.3241 28.0427 44.1253 27.8962 43.9788C27.7497 43.8323 27.551 43.75 27.3438 43.75H5.46875C4.84772 43.7481 4.25265 43.5006 3.81352 43.0615C3.37438 42.6223 3.12685 42.0273 3.125 41.4062V17.1875H46.875V29.6875C46.875 29.8947 46.9573 30.0934 47.1038 30.2399C47.2503 30.3864 47.4491 30.4688 47.6562 30.4688C47.8634 30.4688 48.0622 30.3864 48.2087 30.2399C48.3552 30.0934 48.4375 29.8947 48.4375 29.6875V10.1562C48.4375 9.12025 48.026 8.12668 47.2934 7.39411C46.5608 6.66155 45.5673 6.25 44.5312 6.25ZM35.9375 4.6875C35.9375 4.2731 36.1021 3.87567 36.3951 3.58265C36.6882 3.28962 37.0856 3.125 37.5 3.125C37.9144 3.125 38.3118 3.28962 38.6049 3.58265C38.8979 3.87567 39.0625 4.2731 39.0625 4.6875V9.375C39.0625 9.7894 38.8979 10.1868 38.6049 10.4799C38.3118 10.7729 37.9144 10.9375 37.5 10.9375C37.0856 10.9375 36.6882 10.7729 36.3951 10.4799C36.1021 10.1868 35.9375 9.7894 35.9375 9.375V4.6875ZM10.9375 4.6875C10.9375 4.2731 11.1021 3.87567 11.3951 3.58265C11.6882 3.28962 12.0856 3.125 12.5 3.125C12.9144 3.125 13.3118 3.28962 13.6049 3.58265C13.8979 3.87567 14.0625 4.2731 14.0625 4.6875V9.375C14.0625 9.7894 13.8979 10.1868 13.6049 10.4799C13.3118 10.7729 12.9144 10.9375 12.5 10.9375C12.0856 10.9375 11.6882 10.7729 11.3951 10.4799C11.1021 10.1868 10.9375 9.7894 10.9375 9.375V4.6875ZM46.875 15.625H3.125V10.1562C3.12685 9.53522 3.37438 8.94015 3.81352 8.50102C4.25265 8.06188 4.84772 7.81435 5.46875 7.8125H9.375V9.375C9.375 10.2038 9.70424 10.9987 10.2903 11.5847C10.8763 12.1708 11.6712 12.5 12.5 12.5C13.3288 12.5 14.1237 12.1708 14.7097 11.5847C15.2958 10.9987 15.625 10.2038 15.625 9.375V7.8125H34.375V9.375C34.375 10.2038 34.7042 10.9987 35.2903 11.5847C35.8763 12.1708 36.6712 12.5 37.5 12.5C38.3288 12.5 39.1237 12.1708 39.7097 11.5847C40.2958 10.9987 40.625 10.2038 40.625 9.375V7.8125H44.5312C45.1523 7.81435 45.7473 8.06188 46.1865 8.50102C46.6256 8.94015 46.8731 9.53522 46.875 10.1562V15.625Z" fill="white"/>
<path d="M45.3125 43.7501H42.1875C41.9803 43.7501 41.7816 43.8324 41.6351 43.9789C41.4885 44.1254 41.4062 44.3242 41.4062 44.5314C41.4062 44.7386 41.4885 44.9373 41.6351 45.0838C41.7816 45.2303 41.9803 45.3126 42.1875 45.3126H43.2086C41.6744 46.3848 39.8322 46.9268 37.9619 46.8562C36.0915 46.7857 34.2953 46.1064 32.8463 44.9218C31.3973 43.7371 30.3746 42.1117 29.9338 40.2927C29.4929 38.4737 29.658 36.5605 30.4039 34.8439C30.4868 34.6538 30.4908 34.4387 30.415 34.2457C30.3393 34.0528 30.19 33.8978 30 33.8149C29.81 33.7321 29.5948 33.7281 29.4019 33.8038C29.2089 33.8796 29.054 34.0288 28.9711 34.2189C28.0706 36.2894 27.8858 38.601 28.4458 40.7883C29.0058 42.9757 30.2787 44.914 32.0634 46.2971C33.8481 47.6802 36.0428 48.4291 38.3007 48.4256C40.5586 48.422 42.7509 47.6662 44.5312 46.2774V47.6564C44.5312 47.8636 44.6135 48.0623 44.7601 48.2088C44.9066 48.3553 45.1053 48.4376 45.3125 48.4376C45.5197 48.4376 45.7184 48.3553 45.8649 48.2088C46.0114 48.0623 46.0937 47.8636 46.0937 47.6564V44.5314C46.0937 44.3242 46.0114 44.1254 45.8649 43.9789C45.7184 43.8324 45.5197 43.7501 45.3125 43.7501Z" fill="white"/>
<path d="M32.0312 30.2852V28.9062C32.0312 28.699 31.9489 28.5003 31.8024 28.3538C31.6559 28.2073 31.4572 28.125 31.25 28.125C31.0428 28.125 30.8441 28.2073 30.6976 28.3538C30.5511 28.5003 30.4688 28.699 30.4688 28.9062V32.0312C30.4688 32.2385 30.5511 32.4372 30.6976 32.5837C30.8441 32.7302 31.0428 32.8125 31.25 32.8125H34.375C34.5822 32.8125 34.7809 32.7302 34.9274 32.5837C35.0739 32.4372 35.1562 32.2385 35.1562 32.0312C35.1562 31.824 35.0739 31.6253 34.9274 31.4788C34.7809 31.3323 34.5822 31.25 34.375 31.25H33.3539C34.8991 30.1707 36.7562 29.6293 38.6393 29.7092C40.5223 29.7891 42.3269 30.4858 43.7751 31.6921C45.2233 32.8984 46.2348 34.5473 46.6537 36.3849C47.0727 38.2225 46.8759 40.1469 46.0937 41.8617C46.051 41.955 46.027 42.0557 46.0231 42.1583C46.0193 42.2608 46.0357 42.3631 46.0714 42.4593C46.1071 42.5555 46.1614 42.6437 46.2312 42.7189C46.3009 42.7941 46.3849 42.8549 46.4781 42.8977C46.5714 42.9404 46.6722 42.9644 46.7747 42.9683C46.8772 42.9721 46.9795 42.9557 47.0757 42.92C47.1719 42.8843 47.2601 42.83 47.3353 42.7602C47.4105 42.6905 47.4713 42.6065 47.5141 42.5133C48.4582 40.4453 48.6812 38.1204 48.1474 35.9106C47.6136 33.7009 46.3539 31.7341 44.5699 30.3252C42.7859 28.9162 40.5808 28.1465 38.3075 28.1392C36.0342 28.132 33.8242 28.8876 32.0312 30.2852Z" fill="white"/>
<path d="M23.4375 22.6562C23.4375 22.2418 23.2729 21.8444 22.9799 21.5514C22.6868 21.2584 22.2894 21.0938 21.875 21.0938H18.75C18.3356 21.0938 17.9382 21.2584 17.6451 21.5514C17.3521 21.8444 17.1875 22.2418 17.1875 22.6562V25C17.1875 25.4144 17.3521 25.8118 17.6451 26.1049C17.9382 26.3979 18.3356 26.5625 18.75 26.5625H21.875C22.2894 26.5625 22.6868 26.3979 22.9799 26.1049C23.2729 25.8118 23.4375 25.4144 23.4375 25V22.6562ZM18.75 25V22.6562H21.875V25H18.75Z" fill="white"/>
<path d="M32.8125 25V22.6562C32.8125 22.2418 32.6479 21.8444 32.3549 21.5514C32.0618 21.2584 31.6644 21.0938 31.25 21.0938H28.125C27.7106 21.0938 27.3132 21.2584 27.0201 21.5514C26.7271 21.8444 26.5625 22.2418 26.5625 22.6562V25C26.5625 25.4144 26.7271 25.8118 27.0201 26.1049C27.3132 26.3979 27.7106 26.5625 28.125 26.5625H31.25C31.6644 26.5625 32.0618 26.3979 32.3549 26.1049C32.6479 25.8118 32.8125 25.4144 32.8125 25ZM28.125 22.6562H31.25V25H28.125V22.6562Z" fill="white"/>
<path d="M14.0625 22.6562C14.0625 22.2418 13.8979 21.8444 13.6049 21.5514C13.3118 21.2584 12.9144 21.0938 12.5 21.0938H9.375C8.9606 21.0938 8.56317 21.2584 8.27015 21.5514C7.97712 21.8444 7.8125 22.2418 7.8125 22.6562V25C7.8125 25.4144 7.97712 25.8118 8.27015 26.1049C8.56317 26.3979 8.9606 26.5625 9.375 26.5625H12.5C12.9144 26.5625 13.3118 26.3979 13.6049 26.1049C13.8979 25.8118 14.0625 25.4144 14.0625 25V22.6562ZM9.375 25V22.6562H12.5V25H9.375Z" fill="white"/>
<path d="M40.625 26.5625C41.0394 26.5625 41.4368 26.3979 41.7299 26.1049C42.0229 25.8118 42.1875 25.4144 42.1875 25V22.6562C42.1875 22.2418 42.0229 21.8444 41.7299 21.5514C41.4368 21.2584 41.0394 21.0938 40.625 21.0938H37.5C37.0856 21.0938 36.6882 21.2584 36.3951 21.5514C36.1021 21.8444 35.9375 22.2418 35.9375 22.6562V25C35.9375 25.4144 36.1021 25.8118 36.3951 26.1049C36.6882 26.3979 37.0856 26.5625 37.5 26.5625H40.625ZM37.5 22.6562H40.625V25H37.5V22.6562Z" fill="white"/>
<path d="M23.4375 29.6875C23.4375 29.2731 23.2729 28.8757 22.9799 28.5826C22.6868 28.2896 22.2894 28.125 21.875 28.125H18.75C18.3356 28.125 17.9382 28.2896 17.6451 28.5826C17.3521 28.8757 17.1875 29.2731 17.1875 29.6875V32.0312C17.1875 32.4457 17.3521 32.8431 17.6451 33.1361C17.9382 33.4291 18.3356 33.5938 18.75 33.5938H21.875C22.2894 33.5938 22.6868 33.4291 22.9799 33.1361C23.2729 32.8431 23.4375 32.4457 23.4375 32.0312V29.6875ZM18.75 32.0312V29.6875H21.875V32.0312H18.75Z" fill="white"/>
<path d="M14.0625 29.6875C14.0625 29.2731 13.8979 28.8757 13.6049 28.5826C13.3118 28.2896 12.9144 28.125 12.5 28.125H9.375C8.9606 28.125 8.56317 28.2896 8.27015 28.5826C7.97712 28.8757 7.8125 29.2731 7.8125 29.6875V32.0312C7.8125 32.4457 7.97712 32.8431 8.27015 33.1361C8.56317 33.4291 8.9606 33.5938 9.375 33.5938H12.5C12.9144 33.5938 13.3118 33.4291 13.6049 33.1361C13.8979 32.8431 14.0625 32.4457 14.0625 32.0312V29.6875ZM9.375 32.0312V29.6875H12.5V32.0312H9.375Z" fill="white"/>
<path d="M21.875 35.1562H18.75C18.3356 35.1562 17.9382 35.3209 17.6451 35.6139C17.3521 35.9069 17.1875 36.3043 17.1875 36.7188V39.0625C17.1875 39.4769 17.3521 39.8743 17.6451 40.1674C17.9382 40.4604 18.3356 40.625 18.75 40.625H21.875C22.2894 40.625 22.6868 40.4604 22.9799 40.1674C23.2729 39.8743 23.4375 39.4769 23.4375 39.0625V36.7188C23.4375 36.3043 23.2729 35.9069 22.9799 35.6139C22.6868 35.3209 22.2894 35.1562 21.875 35.1562ZM18.75 39.0625V36.7188H21.875V39.0625H18.75Z" fill="white"/>
<path d="M12.5 35.1562H9.375C8.9606 35.1562 8.56317 35.3209 8.27015 35.6139C7.97712 35.9069 7.8125 36.3043 7.8125 36.7188V39.0625C7.8125 39.4769 7.97712 39.8743 8.27015 40.1674C8.56317 40.4604 8.9606 40.625 9.375 40.625H12.5C12.9144 40.625 13.3118 40.4604 13.6049 40.1674C13.8979 39.8743 14.0625 39.4769 14.0625 39.0625V36.7188C14.0625 36.3043 13.8979 35.9069 13.6049 35.6139C13.3118 35.3209 12.9144 35.1562 12.5 35.1562ZM9.375 39.0625V36.7188H12.5V39.0625H9.375Z" fill="white"/>
<path d="M38.2812 40.625C37.3273 40.625 36.7188 40.1625 36.7188 39.8438C36.7188 39.6365 36.6364 39.4378 36.4899 39.2913C36.3434 39.1448 36.1447 39.0625 35.9375 39.0625C35.7303 39.0625 35.5316 39.1448 35.3851 39.2913C35.2386 39.4378 35.1562 39.6365 35.1562 39.8438C35.1562 40.9539 36.1398 41.8523 37.5 42.1094V42.9688C37.5 43.176 37.5823 43.3747 37.7288 43.5212C37.8753 43.6677 38.074 43.75 38.2812 43.75C38.4885 43.75 38.6872 43.6677 38.8337 43.5212C38.9802 43.3747 39.0625 43.176 39.0625 42.9688V42.1094C40.4227 41.8539 41.4062 40.9555 41.4062 39.8438C41.4062 38.5297 40.0336 37.5 38.2812 37.5C37.3273 37.5 36.7188 37.0375 36.7188 36.7188C36.7188 36.4 37.3273 35.9375 38.2812 35.9375C39.2352 35.9375 39.8438 36.4 39.8438 36.7188C39.8438 36.926 39.9261 37.1247 40.0726 37.2712C40.2191 37.4177 40.4178 37.5 40.625 37.5C40.8322 37.5 41.0309 37.4177 41.1774 37.2712C41.3239 37.1247 41.4062 36.926 41.4062 36.7188C41.4062 35.6086 40.4227 34.7102 39.0625 34.4531V33.5938C39.0625 33.3865 38.9802 33.1878 38.8337 33.0413C38.6872 32.8948 38.4885 32.8125 38.2812 32.8125C38.074 32.8125 37.8753 32.8948 37.7288 33.0413C37.5823 33.1878 37.5 33.3865 37.5 33.5938V34.4531C36.1398 34.7086 35.1562 35.607 35.1562 36.7188C35.1562 38.0328 36.5289 39.0625 38.2812 39.0625C39.2352 39.0625 39.8438 39.525 39.8438 39.8438C39.8438 40.1625 39.2352 40.625 38.2812 40.625Z" fill="white"/>
</svg>
