<svg width="50" height="50" viewBox="0 0 50 50" fill="none" xmlns="http://www.w3.org/2000/svg">
<g clip-path="url(#clip0_561_5075)">
<path d="M14.8438 24.2188C8.8125 24.2188 3.90625 29.125 3.90625 35.1562C3.90625 41.1875 8.8125 46.0938 14.8438 46.0938C20.875 46.0938 25.7812 41.1875 25.7812 35.1562C25.7812 29.125 20.875 24.2188 14.8438 24.2188ZM14.8438 44.5312C9.67422 44.5312 5.46875 40.3258 5.46875 35.1562C5.46875 29.9867 9.67422 25.7812 14.8438 25.7812C20.0133 25.7812 24.2188 29.9867 24.2188 35.1562C24.2188 40.3258 20.0133 44.5312 14.8438 44.5312Z" fill="white"/>
<path d="M14.8438 28.9062C11.3977 28.9062 8.59375 31.7102 8.59375 35.1562C8.59375 38.6023 11.3977 41.4062 14.8438 41.4062C18.2898 41.4062 21.0938 38.6023 21.0938 35.1562C21.0938 31.7102 18.2898 28.9062 14.8438 28.9062ZM14.8438 39.8438C12.2586 39.8438 10.1562 37.7414 10.1562 35.1562C10.1562 32.5711 12.2586 30.4688 14.8438 30.4688C17.4289 30.4688 19.5312 32.5711 19.5312 35.1562C19.5312 37.7414 17.4289 39.8438 14.8438 39.8438Z" fill="white"/>
<path d="M48.4374 36.3953L46.4171 34.375L47.6561 33.1359C48.16 32.632 48.4374 31.9625 48.4374 31.25C48.4374 30.5375 48.16 29.8672 47.6561 29.3641L46.4171 28.125L46.8749 27.6672C47.3788 27.1633 47.6561 26.4937 47.6561 25.7812C47.6561 25.0688 47.3788 24.3984 46.8749 23.8953L44.8546 21.875C43.8475 20.8672 42.0897 20.8672 41.0827 21.875L37.4999 25.4578L24.5421 12.5L28.1249 8.91719C28.6288 8.41406 28.9061 7.74375 28.9061 7.03125C28.9061 6.31875 28.6288 5.64844 28.1249 5.14531L26.1046 3.125C25.0975 2.11719 23.3397 2.11719 22.3327 3.125L21.8749 3.58281L20.6358 2.34375C19.6288 1.33594 17.871 1.33594 16.8639 2.34375L15.6249 3.58281L13.6046 1.5625C12.5975 0.554688 10.8397 0.554688 9.83269 1.5625L6.24988 5.14531C5.74597 5.64844 5.46863 6.31875 5.46863 7.03125C5.46863 7.74375 5.74597 8.41406 6.24988 8.91719L8.27019 10.9375L7.03113 12.1766C6.52722 12.6797 6.24988 13.35 6.24988 14.0625C6.24988 14.775 6.52722 15.4453 7.03113 15.9484L8.27019 17.1875L7.81238 17.6453C7.30847 18.1484 7.03113 18.8188 7.03113 19.5312C7.03113 20.2437 7.30847 20.9141 7.81238 21.4172L8.8491 22.4539C4.08894 24.7102 0.781128 29.5477 0.781128 35.1562C0.781128 42.9102 7.08972 49.2188 14.8436 49.2188C20.4522 49.2188 25.2897 45.9109 27.546 41.1508L28.5827 42.1875C29.0866 42.6914 29.7561 42.9688 30.4686 42.9688C31.1811 42.9688 31.8514 42.6914 32.3546 42.1875L32.8124 41.7297L34.0514 42.9688C34.5553 43.4727 35.2249 43.75 35.9374 43.75C36.6499 43.75 37.3202 43.4727 37.8233 42.9688L39.0624 41.7297L41.0827 43.75C41.5866 44.2539 42.2561 44.5312 42.9686 44.5312C43.6811 44.5312 44.3514 44.2539 44.8546 43.75L48.4374 40.1672C48.9413 39.6633 49.2186 38.9937 49.2186 38.2812C49.2186 37.5687 48.9413 36.8984 48.4374 36.3953ZM36.3952 26.5625L31.2499 31.7078L25.0163 25.4742C24.8569 25.3062 24.6936 25.1438 24.5257 24.9836L18.2921 18.75L23.4374 13.6047L36.3952 26.5625ZM28.853 34.1047C28.771 33.0031 28.5725 31.9344 28.2507 30.918L30.1452 32.8125L28.853 34.1047ZM17.1874 19.8547L19.0819 21.7492C18.0647 21.4273 16.996 21.2289 15.8952 21.1469L17.1874 19.8547ZM7.35457 7.8125C7.1491 7.60703 7.03113 7.32187 7.03113 7.03125C7.03113 6.74062 7.1491 6.45547 7.35457 6.25L10.9374 2.66719C11.3483 2.25625 12.0889 2.25625 12.4999 2.66719L14.5202 4.6875L9.37488 9.83281L7.35457 7.8125ZM8.13582 14.8438C7.93035 14.6383 7.81238 14.3531 7.81238 14.0625C7.81238 13.7719 7.93035 13.4867 8.13582 13.2812L17.9686 3.44844C18.3796 3.0375 19.1202 3.0375 19.5311 3.44844L20.7702 4.6875L9.37488 16.0828L8.13582 14.8438ZM8.91706 20.3125C8.7116 20.107 8.59363 19.8219 8.59363 19.5312C8.59363 19.2406 8.7116 18.9555 8.91706 18.75L23.4374 4.22969C23.8483 3.81875 24.5889 3.81875 24.9999 4.22969L27.0202 6.25C27.2257 6.45547 27.3436 6.74062 27.3436 7.03125C27.3436 7.32187 27.2257 7.60703 27.0202 7.8125L13.6796 21.1523C12.5499 21.2453 11.46 21.4711 10.421 21.8164L8.91706 20.3125ZM14.8436 47.6562C7.95144 47.6562 2.34363 42.0484 2.34363 35.1562C2.34363 28.2641 7.95144 22.6562 14.8436 22.6562C18.1616 22.6562 21.1741 23.9648 23.4139 26.0812L23.9186 26.5859C26.035 28.8258 27.3436 31.8383 27.3436 35.1562C27.3436 42.0484 21.7358 47.6562 14.8436 47.6562ZM29.6874 41.0828L28.1827 39.5781C28.528 38.5398 28.7538 37.4492 28.8468 36.3195L42.1874 22.9797C42.5983 22.5688 43.3389 22.5688 43.7499 22.9797L45.7702 25C45.9757 25.2055 46.0936 25.4906 46.0936 25.7812C46.0936 26.0719 45.9757 26.357 45.7702 26.5625L31.2499 41.0828C30.8389 41.4937 30.0983 41.4937 29.6874 41.0828ZM36.7186 41.8641C36.3077 42.275 35.5671 42.275 35.1561 41.8641L33.9171 40.625L45.3124 29.2297L46.5514 30.4688C46.7569 30.6742 46.8749 30.9594 46.8749 31.25C46.8749 31.5406 46.7569 31.8258 46.5514 32.0312L36.7186 41.8641ZM47.3327 39.0625L43.7499 42.6453C43.3389 43.0562 42.5983 43.0562 42.1874 42.6453L40.1671 40.625L45.3124 35.4797L47.3327 37.5C47.5382 37.7055 47.6561 37.9906 47.6561 38.2812C47.6561 38.5719 47.5382 38.857 47.3327 39.0625Z" fill="white"/>
<path d="M14.8077 21.1538C7.06648 21.1538 0.769226 27.4511 0.769226 35.1923C0.769226 42.9335 7.06648 49.2307 14.8077 49.2307C22.5489 49.2307 28.8461 42.9335 28.8461 35.1923C28.8461 27.4511 22.5489 21.1538 14.8077 21.1538ZM14.8077 47.2252C8.17251 47.2252 2.77472 41.8274 2.77472 35.1923C2.77472 28.5571 8.17251 23.1593 14.8077 23.1593C21.4429 23.1593 26.8407 28.5571 26.8407 35.1923C26.8407 41.8274 21.4429 47.2252 14.8077 47.2252Z" fill="white"/>
<circle cx="14.8077" cy="35.1923" r="5.19231" fill="white"/>
</g>
<defs>
<clipPath id="clip0_561_5075">
<rect width="50" height="50" fill="white"/>
</clipPath>
</defs>
</svg>
