<svg width="50" height="50" viewBox="0 0 50 50" fill="none" xmlns="http://www.w3.org/2000/svg">
<g clip-path="url(#clip0_561_5055)">
<path d="M29.8877 30.9949C28.996 30.9955 28.126 30.7203 27.3972 30.207L10.2558 18.1878C9.31293 17.5249 8.67159 16.5153 8.47245 15.3805C8.27331 14.2457 8.53262 13.0783 9.19352 12.1343L9.26731 12.0333C9.3245 11.9518 9.39719 11.8824 9.48123 11.829C9.56528 11.7756 9.65902 11.7393 9.7571 11.7222C9.85519 11.705 9.9557 11.7073 10.0529 11.729C10.1501 11.7506 10.2421 11.7912 10.3235 11.8484L33.3414 27.9868C33.5056 28.1021 33.6174 28.2777 33.6523 28.4752C33.6872 28.6727 33.6422 28.8759 33.5274 29.0403L33.4546 29.1414C33.053 29.7142 32.5191 30.1817 31.8981 30.5044C31.2772 30.8271 30.5875 30.9953 29.8877 30.9949ZM10.1305 13.5606C9.88907 14.1547 9.85617 14.8131 10.0372 15.4283C10.2181 16.0435 10.6023 16.5794 11.1271 16.9484L28.2674 28.9686C28.7933 29.3359 29.4281 29.5145 30.0684 29.4752C30.7088 29.436 31.317 29.1812 31.794 28.7525L10.1305 13.5606Z" fill="white"/>
<path d="M31.1349 28.1162C30.9793 28.1164 30.8275 28.0684 30.7003 27.9788L11.2251 14.3273C11.1436 14.2701 11.0742 14.1975 11.0208 14.1135C10.9673 14.0295 10.931 13.9358 10.9138 13.8378C10.8967 13.7398 10.899 13.6393 10.9206 13.5422C10.9423 13.4451 10.9829 13.3532 11.0402 13.2717L12.1075 11.7526C14.0376 9.01019 16.9773 7.14494 20.2818 6.56604C23.5863 5.98715 26.9857 6.74189 29.734 8.66467C32.4776 10.5934 34.3437 13.5309 34.9229 16.8328C35.5022 20.1347 34.7473 23.5314 32.8239 26.2778L31.7566 27.799C31.6859 27.8978 31.5926 27.9781 31.4844 28.0333C31.3763 28.0885 31.2564 28.117 31.1349 28.1162ZM12.716 13.5222L30.951 26.3081L31.5837 25.4071C33.2803 22.9905 33.9468 19.9994 33.4367 17.0918C32.9265 14.1841 31.2814 11.5981 28.8633 9.90255C27.666 9.06302 26.3149 8.46739 24.8872 8.14966C23.4595 7.83194 21.9832 7.79834 20.5426 8.0508C17.633 8.56065 15.0453 10.2047 13.3487 12.6212L12.716 13.5222Z" fill="white"/>
<path d="M10.9694 24.6061C10.8172 24.6057 10.6686 24.5595 10.543 24.4736C10.4174 24.3876 10.3207 24.2659 10.2653 24.1242C10.2099 23.9825 10.1984 23.8275 10.2324 23.6792C10.2664 23.5309 10.3443 23.3963 10.4559 23.2929L11.5678 22.2657C11.7177 22.146 11.9073 22.0875 12.0986 22.1019C12.2899 22.1163 12.4687 22.2026 12.5989 22.3433C12.7292 22.4841 12.8012 22.669 12.8006 22.8607C12.8 23.0524 12.7268 23.2368 12.5957 23.3768L11.4839 24.403C11.3441 24.533 11.1604 24.6056 10.9694 24.6061Z" fill="white"/>
<path d="M5.8661 29.3051C5.71389 29.3047 5.56532 29.2586 5.43973 29.1726C5.31414 29.0867 5.21735 28.9649 5.16195 28.8233C5.10655 28.6816 5.09511 28.5265 5.12912 28.3783C5.16313 28.23 5.24102 28.0954 5.35264 27.992L7.90378 25.6425C7.97562 25.5691 8.06166 25.511 8.15666 25.4718C8.25166 25.4326 8.35363 25.4132 8.45639 25.4146C8.55915 25.4161 8.66054 25.4384 8.7544 25.4802C8.84827 25.522 8.93265 25.5824 9.00241 25.6578C9.07217 25.7332 9.12587 25.822 9.16023 25.9188C9.19459 26.0156 9.20889 26.1184 9.20228 26.2209C9.19567 26.3234 9.16827 26.4234 9.12176 26.515C9.07525 26.6066 9.01059 26.6878 8.93171 26.7536L6.38057 29.1041C6.24038 29.2332 6.05675 29.305 5.8661 29.3051Z" fill="white"/>
<path d="M2.20011 32.6808C2.0479 32.6805 1.89934 32.6343 1.77375 32.5484C1.64816 32.4624 1.55136 32.3407 1.49596 32.199C1.44056 32.0573 1.42913 31.9023 1.46314 31.754C1.49715 31.6057 1.57503 31.4711 1.68665 31.3677L2.79848 30.3415C2.94786 30.2206 3.1376 30.161 3.3293 30.1746C3.521 30.1883 3.70036 30.2742 3.83108 30.415C3.96181 30.5558 4.03416 30.7409 4.03348 30.933C4.0328 31.125 3.95915 31.3097 3.82743 31.4495L2.7156 32.4768C2.57599 32.6079 2.39166 32.6808 2.20011 32.6808Z" fill="white"/>
<path d="M16.379 28.4414C16.2403 28.4411 16.1044 28.4028 15.986 28.3308C15.8676 28.2587 15.7711 28.1557 15.7072 28.0327C15.6432 27.9098 15.6142 27.7717 15.6232 27.6335C15.6322 27.4952 15.679 27.3621 15.7584 27.2485L16.6296 26.0081C16.7452 25.8436 16.9214 25.7317 17.1194 25.697C17.3175 25.6624 17.5213 25.7078 17.6859 25.8232C17.8505 25.9387 17.9624 26.1148 17.9971 26.3127C18.0318 26.5107 17.9864 26.7143 17.8708 26.8788L16.9996 28.1161C16.9301 28.2164 16.8373 28.2983 16.7292 28.355C16.6212 28.4116 16.501 28.4413 16.379 28.4414Z" fill="white"/>
<path d="M12.0802 34.5637C11.9417 34.5634 11.8059 34.5252 11.6876 34.4532C11.5692 34.3812 11.4729 34.2782 11.409 34.1553C11.3452 34.0325 11.3162 33.8945 11.3253 33.7563C11.3344 33.6182 11.3812 33.4852 11.4606 33.3717L13.6095 30.3101C13.7264 30.1495 13.9018 30.0412 14.0978 30.0086C14.2939 29.976 14.4949 30.0215 14.6576 30.1356C14.8204 30.2496 14.9318 30.4229 14.9679 30.6182C15.004 30.8135 14.9619 31.0152 14.8507 31.1798L12.7008 34.2414C12.631 34.3411 12.5381 34.4225 12.4301 34.4786C12.322 34.5347 12.202 34.5639 12.0802 34.5637Z" fill="white"/>
<path d="M9.06008 38.8657C8.92144 38.8654 8.78554 38.8271 8.66711 38.7551C8.54869 38.6831 8.45227 38.58 8.38832 38.4571C8.32437 38.3341 8.29532 38.196 8.30434 38.0578C8.31336 37.9195 8.3601 37.7864 8.43948 37.6728L9.31075 36.4324C9.36708 36.349 9.43948 36.2777 9.5237 36.2226C9.60791 36.1674 9.70228 36.1296 9.80127 36.1114C9.90027 36.0931 10.0019 36.0947 10.1003 36.1161C10.1986 36.1375 10.2918 36.1783 10.3742 36.236C10.4566 36.2938 10.5267 36.3674 10.5804 36.4525C10.634 36.5376 10.6702 36.6326 10.6868 36.7318C10.7033 36.831 10.6999 36.9326 10.6768 37.0305C10.6536 37.1284 10.6112 37.2207 10.552 37.3021L9.68169 38.5425C9.61169 38.6423 9.51865 38.7238 9.41044 38.7801C9.30224 38.8363 9.18206 38.8657 9.06008 38.8657Z" fill="white"/>
<path d="M21.8279 32.2202C21.7031 32.2199 21.5804 32.1888 21.4705 32.1297C21.3606 32.0706 21.2669 31.9853 21.1979 31.8815C21.1288 31.7776 21.0864 31.6583 21.0745 31.5342C21.0626 31.41 21.0815 31.2848 21.1295 31.1697L21.7168 29.7718C21.7972 29.5905 21.9455 29.4479 22.1298 29.3747C22.3142 29.3015 22.52 29.3034 22.703 29.3801C22.8859 29.4568 23.0315 29.6021 23.1085 29.7849C23.1855 29.9676 23.1877 30.1733 23.1146 30.3576L22.5264 31.7526C22.4691 31.8907 22.3722 32.0088 22.248 32.092C22.1237 32.1752 21.9775 32.2199 21.8279 32.2202Z" fill="white"/>
<path d="M19.1423 38.6142C19.0174 38.6139 18.8945 38.5828 18.7845 38.5236C18.6745 38.4645 18.5808 38.3791 18.5117 38.2751C18.4426 38.1711 18.4003 38.0516 18.3884 37.9274C18.3766 37.8031 18.3957 37.6778 18.4439 37.5626L19.7872 34.3657C19.8651 34.1804 20.0134 34.0337 20.1995 33.9577C20.3857 33.8818 20.5944 33.8828 20.7798 33.9606C20.9651 34.0384 21.112 34.1867 21.188 34.3727C21.264 34.5587 21.263 34.7673 21.1851 34.9525L19.8418 38.1495C19.7839 38.2872 19.6867 38.4047 19.5622 38.4873C19.4378 38.57 19.2918 38.6141 19.1423 38.6142Z" fill="white"/>
<path d="M17.2128 43.208C17.0879 43.2078 16.965 43.1768 16.8549 43.1176C16.7449 43.0585 16.6512 42.9731 16.5822 42.869C16.5132 42.765 16.471 42.6455 16.4593 42.5212C16.4477 42.3969 16.4669 42.2716 16.5154 42.1565L17.1016 40.7606C17.1402 40.6688 17.1965 40.5856 17.2672 40.5156C17.338 40.4456 17.4218 40.3902 17.514 40.3526C17.6062 40.315 17.7048 40.2959 17.8044 40.2964C17.9039 40.2969 18.0024 40.317 18.0942 40.3555C18.186 40.3941 18.2693 40.4503 18.3393 40.521C18.4094 40.5917 18.4648 40.6755 18.5024 40.7676C18.5401 40.8597 18.5592 40.9583 18.5587 41.0578C18.5582 41.1573 18.5381 41.2557 18.4995 41.3474L17.9123 42.7444C17.8544 42.882 17.7572 42.9995 17.6327 43.082C17.5083 43.1645 17.3622 43.2083 17.2128 43.208Z" fill="white"/>
<path d="M47.2999 51.5H43.9644C43.7633 51.5 43.5705 51.4202 43.4284 51.2781C43.2862 51.136 43.2063 50.9433 43.2063 50.7424V6.29798L35.9067 6.35555C35.8764 6.3562 35.8465 6.36297 35.8189 6.37547C35.7913 6.38797 35.7665 6.40594 35.746 6.42828L31.5675 10.7828C31.4418 10.9139 31.273 10.9955 31.0921 11.0125C30.9111 11.0296 30.7301 10.9811 30.582 10.8758L27.9329 8.99596C27.8449 8.93375 27.7713 8.85349 27.7169 8.76056C27.6625 8.66763 27.6285 8.56416 27.6173 8.45707C27.6061 8.34998 27.6179 8.24174 27.6519 8.13957C27.686 8.03741 27.7414 7.94368 27.8146 7.86465L32.2296 3.07879C32.7044 2.58247 33.2745 2.18687 33.9058 1.91562C34.537 1.64436 35.2165 1.50301 35.9036 1.5H43.2609C44.5334 1.50161 45.7532 2.00775 46.6526 2.90731C47.552 3.80688 48.0574 5.02634 48.058 6.29798V50.7424C48.058 50.9433 47.9781 51.136 47.8359 51.2781C47.6938 51.4202 47.5009 51.5 47.2999 51.5ZM44.7184 49.9848H46.5378V6.29798C46.5367 5.42845 46.1906 4.59484 45.5753 3.97999C44.9601 3.36514 44.126 3.01925 43.2559 3.01818H35.9026C35.4223 3.02016 34.9473 3.11876 34.5058 3.30809C34.0644 3.49742 33.6657 3.77361 33.3333 4.1202L29.5086 8.26162L30.9237 9.26364L34.6453 5.38687C34.8073 5.21557 35.0025 5.07898 35.219 4.98538C35.4355 4.89179 35.6688 4.84315 35.9047 4.84242H43.2619C43.6479 4.84349 44.0177 4.99719 44.2906 5.26992C44.5636 5.54266 44.7174 5.91227 44.7184 6.29798V49.9848Z" fill="white"/>
</g>
<defs>
<clipPath id="clip0_561_5055">
<rect width="47" height="48" fill="white" transform="translate(1.25 1.5)"/>
</clipPath>
</defs>
</svg>
