<svg width="50" height="50" viewBox="0 0 50 50" fill="none" xmlns="http://www.w3.org/2000/svg">
<g clip-path="url(#clip0_561_5088)">
<g clip-path="url(#clip1_561_5088)">
<path d="M0.50283 18.5643C-0.13135 17.979 -0.171096 16.9906 0.414158 16.3564C3.51553 12.9954 7.19551 10.348 11.352 8.48752C15.6562 6.56096 20.248 5.58411 25 5.58411C29.752 5.58411 34.3438 6.56096 38.6479 8.48752C42.8044 10.348 46.4845 12.9954 49.5857 16.3564C50.1709 16.9906 50.1312 17.9791 49.4971 18.5643C49.1967 18.8414 48.8167 18.9784 48.4378 18.9784C48.0168 18.9784 47.5972 18.8094 47.2891 18.4756C41.5618 12.2689 33.4377 8.70911 25 8.70911C16.5623 8.70911 8.43818 12.2689 2.71084 18.4756C2.12558 19.1098 1.13701 19.1494 0.50283 18.5643ZM40.1756 25.5486C40.749 26.1935 41.7365 26.2514 42.3814 25.678C43.0264 25.1045 43.0843 24.1169 42.5108 23.4721C38.0655 18.4727 31.683 15.6055 25 15.6055C18.3169 15.6055 11.9345 18.4728 7.48916 23.4721C6.91572 24.117 6.97363 25.1046 7.61855 25.6781C7.91631 25.9427 8.28691 26.0729 8.65625 26.0729C9.08691 26.0729 9.51582 25.8958 9.82451 25.5487C13.6773 21.2157 19.2086 18.7306 25 18.7306C30.7914 18.7305 36.3227 21.2156 40.1756 25.5486ZM33.017 32.5976C33.3257 32.9817 33.7786 33.1813 34.2357 33.1813C34.5793 33.1813 34.9251 33.0685 35.2137 32.8365C35.8862 32.2959 35.9933 31.3124 35.4526 30.6398C32.892 27.4539 29.0821 25.6268 25 25.6268C20.9179 25.6268 17.1081 27.4539 14.5473 30.6398C14.0066 31.3123 14.1136 32.2958 14.7862 32.8365C15.4589 33.3773 16.4424 33.2701 16.983 32.5976C18.9476 30.1535 21.8696 28.7519 25 28.7519C28.1305 28.7518 31.0525 30.1535 33.017 32.5976ZM25 35.6482C26.8658 35.6482 28.3839 37.1661 28.3839 39.0321C28.3839 40.8979 26.8659 42.4158 25 42.4158C23.1341 42.4158 21.6161 40.8979 21.6161 39.0321C21.6161 37.1662 23.1341 35.6482 25 35.6482ZM25 38.7732C24.8597 38.7732 24.7411 38.8917 24.7411 39.0321C24.7411 39.1724 24.8597 39.2908 25 39.2908C25.1403 39.2908 25.2589 39.1723 25.2589 39.0321C25.2588 38.8918 25.1403 38.7732 25 38.7732Z" fill="white"/>
</g>
</g>
<defs>
<clipPath id="clip0_561_5088">
<rect width="50" height="50" fill="white"/>
</clipPath>
<clipPath id="clip1_561_5088">
<rect width="50" height="50" fill="white" transform="translate(0 -1)"/>
</clipPath>
</defs>
</svg>
